<?xml version="1.0" encoding="utf-8"?>
<!-- Generator: Adobe Illustrator 16.0.3, SVG Export Plug-In . SVG Version: 6.00 Build 0)  -->
<!DOCTYPE svg PUBLIC "-//W3C//DTD SVG 1.1//EN" "http://www.w3.org/Graphics/SVG/1.1/DTD/svg11.dtd">
<svg version="1.1" id="Layer_1" xmlns="http://www.w3.org/2000/svg" xmlns:xlink="http://www.w3.org/1999/xlink" x="0px" y="0px"
	 width="14.375px" height="28.423px" viewBox="0 4.39 14.375 28.423" enable-background="new 0 4.39 14.375 28.423"
	 xml:space="preserve">
<g>
	<path fill="#465B00" d="M0.839,32.534c-0.238-4.007,0.994-7.045,1.471-7.859c0.227-0.413,0.488-0.821,0.756-1.235
		c0.25-0.426,0.559-0.815,0.85-1.221c0.283-0.408,0.621-0.77,0.924-1.152c0.352-0.334,0.658-0.707,1.002-1.014
		c0.365-0.277,0.678-0.613,1.033-0.841c0.358-0.219,0.676-0.481,1.004-0.651c0.336-0.159,0.642-0.319,0.914-0.467
		c0.277-0.135,0.541-0.191,0.75-0.27c0.422-0.145,0.67-0.242,0.67-0.242s-0.256,0.009-0.711,0.052
		c-0.225,0.031-0.51,0.032-0.819,0.105c-0.31,0.082-0.66,0.177-1.041,0.299c-0.379,0.124-0.753,0.343-1.167,0.545
		c-0.413,0.204-0.787,0.512-1.199,0.798c-0.393,0.311-0.766,0.666-1.145,1.029c-0.332,0.398-0.707,0.781-1.016,1.21
		c-0.617,0.856-1.176,1.753-1.583,2.646c-0.231,0.436-0.387,0.883-0.56,1.295c-0.049,0.123-0.077,0.229-0.12,0.35
		c0.142-1.118,0.315-2.281,0.54-3.438c0.252-1.338,0.594-2.652,1.006-3.847c0.211-0.596,0.445-1.155,0.691-1.678
		c0.265-0.51,0.533-0.982,0.822-1.393c0.293-0.404,0.594-0.753,0.883-1.044c0.301-0.278,0.58-0.506,0.836-0.658
		c0.242-0.178,0.463-0.263,0.604-0.345c0.146-0.075,0.223-0.115,0.223-0.115s-0.084,0.022-0.24,0.064
		c-0.153,0.053-0.404,0.078-0.678,0.224c-0.289,0.114-0.617,0.3-0.981,0.541c-0.354,0.253-0.735,0.57-1.095,0.973
		c-0.361,0.399-0.709,0.869-1.029,1.395c-0.307,0.529-0.613,1.102-0.857,1.72c-0.25,0.616-0.494,1.26-0.674,1.931
		c-0.076,0.267-0.13,0.544-0.197,0.815c0.002-0.158,0.002-0.314,0.004-0.475c0.002-3.019-0.071-6.038-0.193-8.302
		c-0.053-1.077-0.135-1.975-0.178-2.628C0.38,9.625,0.428,9.597,0.473,9.561C0.57,9.489,0.692,9.4,0.8,9.291
		c0.117-0.107,0.229-0.229,0.338-0.37c0.217-0.276,0.4-0.618,0.505-1.001c0.106-0.38,0.131-0.799,0.063-1.221
		C1.68,6.491,1.611,6.278,1.54,6.076c-0.074-0.202-0.192-0.402-0.307-0.58c-0.128-0.183-0.275-0.35-0.425-0.492
		C0.641,4.859,0.466,4.74,0.304,4.645c-0.182-0.093-0.359-0.157-0.52-0.2c-0.148-0.048-0.326-0.05-0.449-0.054
		c-0.121-0.007-0.232,0.015-0.299,0.021c-0.068,0.011-0.107,0.021-0.107,0.021s-0.01,0.04-0.024,0.116
		c-0.009,0.067-0.038,0.179-0.057,0.285c-0.022,0.112-0.052,0.233-0.092,0.373c-0.037,0.118-0.074,0.252-0.117,0.4
		c-0.045,0.141-0.087,0.275-0.118,0.402c-0.044,0.141-0.07,0.271-0.089,0.4C-1.597,6.55-1.602,6.676-1.604,6.812
		C-1.607,6.951-1.586,7.08-1.57,7.222c0.048,0.273,0.134,0.561,0.275,0.84c0.136,0.28,0.32,0.555,0.521,0.805
		C-0.678,8.992-0.57,9.11-0.472,9.218c0.1,0.107,0.208,0.206,0.291,0.288c0.049,0.051,0.1,0.095,0.145,0.132
		c0.129-1.125,0.279-2.947-0.039-3.479c0,0,0.699,0.97,0.404,3.364C0.277,8.877,0.235,8.507,0.235,8.507s-0.045,0.377-0.1,1.037
		c-0.045,0.661-0.139,1.604-0.196,2.735c-0.132,2.265-0.222,5.283-0.229,8.302c0,0.455,0,0.909,0.004,1.36
		c-0.125-0.571-0.25-1.146-0.411-1.701c-0.179-0.672-0.423-1.314-0.673-1.931c-0.246-0.618-0.551-1.19-0.858-1.72
		c-0.321-0.525-0.667-0.995-1.029-1.395c-0.359-0.402-0.741-0.72-1.095-0.973c-0.365-0.241-0.692-0.427-0.982-0.541
		c-0.272-0.146-0.523-0.171-0.677-0.224c-0.157-0.042-0.241-0.064-0.241-0.064s0.077,0.04,0.222,0.115
		c0.142,0.082,0.362,0.167,0.604,0.345c0.256,0.152,0.536,0.38,0.837,0.658C-4.3,14.801-4,15.15-3.707,15.554
		c0.289,0.41,0.558,0.883,0.821,1.393c0.007,0.015,0.013,0.033,0.02,0.048c-0.011,0-0.021-0.001-0.033-0.001
		c-0.121,0-0.244,0.012-0.357,0.038c-0.115,0.024-0.22,0.067-0.31,0.118c-0.047,0.028-0.089,0.052-0.128,0.086
		c-0.04,0.033-0.075,0.064-0.109,0.105c-0.035,0.036-0.065,0.074-0.097,0.12c-0.029,0.039-0.059,0.083-0.088,0.129
		c-0.035,0.047-0.064,0.091-0.09,0.129c-0.032,0.045-0.059,0.081-0.086,0.114c-0.028,0.03-0.053,0.065-0.071,0.085
		c-0.018,0.021-0.028,0.033-0.028,0.033s0.007,0.015,0.02,0.037c0.014,0.021,0.034,0.059,0.064,0.093
		c0.031,0.033,0.072,0.085,0.121,0.118c0.05,0.035,0.112,0.073,0.182,0.104c0.066,0.025,0.141,0.048,0.224,0.063
		c0.076,0.01,0.16,0.014,0.243,0.008c0.079-0.009,0.165-0.021,0.241-0.047c0.075-0.026,0.154-0.058,0.22-0.099
		c0.14-0.079,0.256-0.186,0.341-0.307c0.032-0.045,0.041-0.095,0.064-0.142c0.117,0.281,0.242,0.545,0.349,0.845
		c0.413,1.194,0.754,2.509,1.006,3.847c0.14,0.713,0.258,1.43,0.362,2.139c-0.275-0.818-0.652-1.649-1.109-2.449
		c-0.251-0.441-0.578-0.844-0.86-1.258c-0.34-0.375-0.663-0.756-1.025-1.071C-4.203,19.534-4.534,19.202-4.933,19
		c-0.392-0.208-0.734-0.449-1.104-0.562c-0.363-0.128-0.698-0.228-0.991-0.314c-0.301-0.063-0.572-0.075-0.788-0.106
		c-0.436-0.047-0.679-0.059-0.679-0.059s0.234,0.1,0.635,0.248c0.199,0.078,0.447,0.146,0.712,0.27
		c0.256,0.149,0.542,0.314,0.855,0.476c0.317,0.156,0.596,0.438,0.93,0.656c0.336,0.221,0.599,0.572,0.93,0.854
		c0.313,0.306,0.564,0.692,0.874,1.03c0.25,0.391,0.54,0.761,0.765,1.177c0.234,0.411,0.485,0.813,0.671,1.244
		c0.208,0.42,0.405,0.839,0.572,1.257C-1.2,26-1.225,26.8-0.989,27.49c0.119,0.379,0.031,0.72,0.127,1.023
		c0.047,0.502,0.09,0.982,0.128,1.43c0.079,1.029,0.161,1.992,0.19,2.598 M-3.521,17.838c0.173-0.024,0.497-0.298,0.773-0.561
		c0.018,0.039,0.033,0.083,0.051,0.123C-3.188,17.817-3.521,17.838-3.521,17.838z"/>
	<path fill="#465B00" d="M-12.662,11.823c0.11,0.264,0.255,0.537,0.429,0.792c0.176,0.233,0.377,0.483,0.603,0.678
		c0.225,0.191,0.469,0.384,0.724,0.521c0.514,0.293,1.067,0.465,1.613,0.513c0.544,0.053,1.078-0.021,1.543-0.16
		c0.235-0.074,0.449-0.157,0.644-0.254c0.192-0.09,0.368-0.205,0.508-0.295c0.082-0.049,0.153-0.104,0.216-0.153
		c-3.416-0.779-4.354-2.221-4.354-2.221c0.534,0.673,2.966,1.369,4.485,1.751c-0.027-0.077-0.059-0.162-0.101-0.251
		c-0.066-0.146-0.139-0.336-0.231-0.516c-0.09-0.181-0.192-0.376-0.305-0.564c-0.226-0.381-0.493-0.752-0.788-1.066
		c-0.293-0.318-0.622-0.568-0.953-0.767c-0.178-0.09-0.333-0.181-0.515-0.242c-0.179-0.065-0.343-0.12-0.539-0.153
		c-0.178-0.038-0.356-0.067-0.563-0.08c-0.177-0.023-0.372-0.036-0.576-0.045c-0.212-0.017-0.405-0.033-0.575-0.045
		c-0.2-0.014-0.371-0.036-0.529-0.062c-0.146-0.03-0.304-0.045-0.396-0.065c-0.106-0.018-0.161-0.026-0.161-0.026
		s-0.035,0.046-0.081,0.131c-0.042,0.081-0.124,0.217-0.174,0.377c-0.055,0.161-0.138,0.388-0.15,0.606
		c-0.022,0.227-0.025,0.49,0.007,0.768C-12.837,11.255-12.767,11.537-12.662,11.823z"/>
	<path fill="#465B00" d="M-9.121,17.597c0.053-0.044,0.097-0.092,0.137-0.134c-2.527-0.17-3.36-1.094-3.36-1.094
		c0.457,0.42,2.272,0.642,3.401,0.743c-0.028-0.052-0.06-0.109-0.101-0.168c-0.063-0.097-0.138-0.225-0.224-0.343
		c-0.084-0.117-0.179-0.246-0.281-0.367c-0.204-0.246-0.437-0.481-0.683-0.673c-0.245-0.193-0.508-0.336-0.767-0.439
		c-0.137-0.044-0.257-0.092-0.395-0.115c-0.135-0.026-0.258-0.046-0.402-0.048c-0.131-0.007-0.262-0.008-0.411,0.007
		c-0.13,0.004-0.271,0.017-0.418,0.033c-0.152,0.013-0.292,0.022-0.415,0.033c-0.145,0.013-0.269,0.016-0.385,0.016
		c-0.107-0.005-0.221,0.002-0.29-0.002c-0.077-0.001-0.118,0-0.118,0s-0.019,0.036-0.043,0.103
		c-0.021,0.063-0.064,0.168-0.082,0.289c-0.021,0.121-0.054,0.292-0.038,0.45c0.01,0.164,0.037,0.353,0.092,0.547
		c0.06,0.181,0.142,0.374,0.25,0.566c0.108,0.176,0.243,0.355,0.395,0.517c0.152,0.147,0.324,0.303,0.507,0.416
		c0.183,0.111,0.378,0.221,0.576,0.29c0.4,0.15,0.815,0.211,1.21,0.184c0.395-0.023,0.768-0.136,1.084-0.289
		c0.159-0.079,0.303-0.163,0.431-0.254C-9.324,17.778-9.21,17.677-9.121,17.597z"/>
	<path fill="#465B00" d="M14.098,14.793c-0.029-0.2-0.082-0.383-0.14-0.537c-0.049-0.149-0.15-0.294-0.22-0.396
		c-0.063-0.102-0.147-0.182-0.19-0.23c-0.049-0.049-0.082-0.076-0.082-0.076s-0.037,0.016-0.106,0.049
		c-0.062,0.032-0.168,0.072-0.265,0.119c-0.104,0.049-0.221,0.096-0.356,0.144c-0.118,0.04-0.249,0.088-0.394,0.141
		c-0.141,0.045-0.274,0.09-0.396,0.139c-0.14,0.047-0.26,0.102-0.376,0.161c-0.131,0.06-0.235,0.13-0.348,0.208
		c-0.116,0.079-0.208,0.171-0.313,0.268c-0.193,0.198-0.375,0.437-0.521,0.714c-0.147,0.274-0.265,0.584-0.349,0.894
		c-0.045,0.151-0.078,0.308-0.107,0.45c-0.029,0.144-0.046,0.288-0.064,0.403c-0.013,0.07-0.019,0.136-0.021,0.195
		c0.987-0.554,2.554-1.498,2.8-2.068c0,0-0.383,1.184-2.62,2.371c0.054,0.021,0.114,0.047,0.181,0.065
		c0.113,0.037,0.258,0.085,0.41,0.109c0.153,0.031,0.317,0.05,0.496,0.057c0.354,0.011,0.737-0.04,1.108-0.179
		c0.368-0.136,0.724-0.36,1.026-0.662c0.153-0.144,0.287-0.322,0.408-0.5c0.121-0.178,0.215-0.39,0.293-0.585
		c0.072-0.211,0.123-0.429,0.149-0.634C14.12,15.192,14.116,14.981,14.098,14.793z"/>
	<path fill="#465B00" d="M8.675,11.449c0,0-0.229,0.823-1.729,1.704c0.036,0.015,0.08,0.029,0.125,0.04
		c0.08,0.022,0.182,0.05,0.285,0.063C7.462,13.273,7.579,13.28,7.7,13.28c0.241-0.004,0.506-0.05,0.756-0.156
		c0.25-0.104,0.485-0.268,0.686-0.484c0.102-0.103,0.188-0.23,0.265-0.354c0.078-0.127,0.136-0.275,0.185-0.412
		c0.043-0.146,0.07-0.298,0.084-0.438c0.008-0.153-0.002-0.296-0.021-0.425c-0.024-0.137-0.067-0.262-0.11-0.365
		c-0.039-0.102-0.113-0.197-0.162-0.265c-0.049-0.068-0.108-0.12-0.139-0.153c-0.035-0.031-0.06-0.05-0.06-0.05
		s-0.026,0.013-0.072,0.037c-0.042,0.024-0.112,0.056-0.179,0.09c-0.071,0.037-0.146,0.072-0.241,0.109
		c-0.08,0.031-0.167,0.066-0.267,0.107c-0.096,0.035-0.187,0.071-0.268,0.107c-0.095,0.037-0.176,0.077-0.253,0.123
		c-0.088,0.044-0.157,0.095-0.231,0.153c-0.076,0.056-0.137,0.123-0.207,0.192c-0.129,0.142-0.245,0.311-0.336,0.506
		c-0.094,0.192-0.164,0.407-0.213,0.623c-0.025,0.104-0.045,0.214-0.061,0.313s-0.023,0.2-0.031,0.278
		c-0.008,0.049-0.011,0.094-0.011,0.135C7.477,12.542,8.523,11.848,8.675,11.449z"/>
	<path fill="#465B00" d="M3.309,12.237c0.096,0.234,0.239,0.438,0.409,0.596c0.171,0.16,0.371,0.275,0.563,0.352
		c0.101,0.036,0.193,0.063,0.285,0.082c0.087,0.021,0.179,0.028,0.249,0.034c0.039,0.005,0.079,0.006,0.112,0.005
		c-0.95-1.158-0.89-1.891-0.89-1.891c0.004,0.366,0.645,1.239,1.058,1.767c0.012-0.033,0.021-0.07,0.03-0.111
		c0.018-0.066,0.041-0.15,0.058-0.235c0.019-0.084,0.034-0.178,0.045-0.27c0.022-0.189,0.03-0.385,0.015-0.566
		c-0.017-0.186-0.062-0.357-0.121-0.509c-0.037-0.078-0.064-0.15-0.109-0.218C4.97,11.204,4.929,11.141,4.87,11.08
		c-0.051-0.061-0.104-0.116-0.168-0.175c-0.057-0.054-0.119-0.109-0.186-0.166c-0.066-0.063-0.128-0.117-0.184-0.166
		c-0.063-0.058-0.117-0.109-0.162-0.159c-0.043-0.048-0.092-0.095-0.117-0.127c-0.03-0.033-0.049-0.051-0.049-0.051
		s-0.022,0.008-0.062,0.022C3.909,10.276,3.845,10.3,3.786,10.34c-0.061,0.041-0.147,0.096-0.211,0.166
		c-0.064,0.07-0.137,0.16-0.199,0.263c-0.053,0.099-0.104,0.211-0.144,0.337c-0.03,0.117-0.055,0.248-0.063,0.379
		c-0.002,0.125,0.002,0.262,0.026,0.388C3.226,11.995,3.257,12.125,3.309,12.237z"/>
	<path fill="#465B00" d="M5.825,14.759c-0.082,0.029-0.16,0.065-0.224,0.093c-0.039,0.016-0.074,0.032-0.104,0.049
		c0.584,0.325,1.547,0.821,1.909,0.768c0,0-0.714,0.175-2.006-0.583c0.004,0.034,0.013,0.073,0.022,0.11
		c0.017,0.069,0.039,0.157,0.072,0.24c0.032,0.088,0.073,0.177,0.125,0.269c0.104,0.18,0.25,0.358,0.436,0.502
		c0.183,0.145,0.406,0.254,0.652,0.313c0.119,0.032,0.252,0.044,0.377,0.051c0.129,0.005,0.265-0.014,0.388-0.035
		c0.128-0.028,0.253-0.072,0.364-0.121c0.117-0.06,0.221-0.126,0.311-0.194c0.091-0.077,0.169-0.161,0.229-0.237
		c0.062-0.071,0.102-0.168,0.131-0.233c0.031-0.064,0.046-0.132,0.059-0.169c0.008-0.039,0.014-0.063,0.014-0.063
		s-0.021-0.015-0.059-0.039c-0.036-0.021-0.09-0.063-0.145-0.097c-0.057-0.037-0.114-0.08-0.183-0.135
		c-0.057-0.047-0.121-0.098-0.192-0.155c-0.065-0.056-0.131-0.109-0.191-0.155c-0.066-0.056-0.132-0.1-0.199-0.139
		c-0.068-0.048-0.138-0.079-0.213-0.111c-0.074-0.034-0.148-0.051-0.23-0.073c-0.16-0.037-0.336-0.055-0.521-0.04
		c-0.182,0.01-0.374,0.047-0.557,0.101C5.995,14.696,5.905,14.729,5.825,14.759z"/>
	<path fill="#465B00" d="M11.169,20.145c-0.049-0.045-0.102-0.098-0.156-0.164c-0.049-0.056-0.102-0.114-0.163-0.186
		c-0.056-0.066-0.108-0.131-0.163-0.188c-0.059-0.065-0.111-0.121-0.172-0.172c-0.061-0.06-0.122-0.102-0.189-0.146
		c-0.068-0.047-0.14-0.076-0.217-0.113c-0.15-0.063-0.32-0.109-0.506-0.129c-0.182-0.021-0.377-0.02-0.566,0.003
		c-0.092,0.009-0.187,0.024-0.271,0.04c-0.085,0.018-0.169,0.037-0.236,0.055c-0.041,0.008-0.079,0.019-0.112,0.028
		c0.521,0.422,1.383,1.076,1.748,1.086c0,0-0.731,0.05-1.875-0.921c0,0.034,0,0.074,0.004,0.112
		c0.004,0.069,0.012,0.159,0.029,0.249c0.018,0.093,0.043,0.187,0.077,0.285c0.073,0.195,0.185,0.396,0.341,0.568
		c0.155,0.176,0.356,0.321,0.59,0.422c0.111,0.055,0.24,0.086,0.363,0.115c0.125,0.027,0.262,0.032,0.387,0.032
		c0.131-0.006,0.262-0.028,0.381-0.058c0.125-0.037,0.238-0.086,0.338-0.138c0.104-0.061,0.195-0.13,0.268-0.194
		c0.071-0.061,0.127-0.146,0.169-0.207c0.041-0.059,0.067-0.121,0.085-0.155c0.018-0.037,0.024-0.06,0.024-0.06
		s-0.019-0.021-0.052-0.05C11.262,20.239,11.216,20.188,11.169,20.145z"/>
	<path fill="#465B00" d="M3.298,17.281c0.002,0.024,0.008,0.051,0.016,0.076c0.012,0.048,0.025,0.108,0.05,0.166
		c0.022,0.061,0.052,0.122,0.087,0.186c0.072,0.124,0.172,0.247,0.299,0.346c0.127,0.101,0.28,0.176,0.451,0.216
		c0.082,0.022,0.174,0.03,0.26,0.035c0.09,0.004,0.184-0.01,0.27-0.024c0.088-0.02,0.175-0.05,0.251-0.083
		c0.082-0.041,0.151-0.087,0.214-0.135c0.063-0.053,0.117-0.11,0.158-0.163c0.041-0.05,0.068-0.116,0.09-0.161
		c0.021-0.045,0.031-0.091,0.039-0.116c0.006-0.027,0.01-0.044,0.01-0.044s-0.015-0.011-0.039-0.027
		c-0.025-0.014-0.063-0.043-0.101-0.066c-0.039-0.025-0.08-0.056-0.125-0.093c-0.04-0.033-0.083-0.067-0.134-0.107
		c-0.045-0.038-0.09-0.075-0.133-0.107c-0.047-0.038-0.092-0.068-0.138-0.096c-0.048-0.033-0.095-0.055-0.147-0.076
		c-0.051-0.024-0.103-0.035-0.159-0.051c-0.108-0.025-0.229-0.038-0.358-0.027c-0.127,0.006-0.259,0.032-0.386,0.069
		c-0.063,0.017-0.124,0.039-0.181,0.06c-0.055,0.021-0.109,0.045-0.152,0.064c-0.025,0.011-0.051,0.021-0.07,0.033
		c0.401,0.225,1.065,0.566,1.315,0.529C4.683,17.684,4.189,17.805,3.298,17.281z"/>
	<path fill="#465B00" d="M-4.768,13.418c0.029,0.081,0.065,0.16,0.093,0.224c0.016,0.039,0.032,0.074,0.049,0.104
		c0.325-0.585,0.821-1.547,0.768-1.909c0,0,0.175,0.714-0.583,2.006c0.034-0.004,0.073-0.012,0.11-0.022
		c0.069-0.017,0.157-0.038,0.24-0.072c0.088-0.033,0.177-0.074,0.269-0.126c0.18-0.105,0.358-0.25,0.502-0.435
		c0.145-0.184,0.254-0.406,0.313-0.652c0.032-0.119,0.044-0.253,0.051-0.378c0.005-0.129-0.014-0.264-0.035-0.388
		c-0.028-0.128-0.072-0.253-0.121-0.364c-0.06-0.118-0.126-0.221-0.194-0.313c-0.077-0.091-0.161-0.169-0.237-0.229
		c-0.071-0.06-0.168-0.1-0.233-0.131c-0.064-0.03-0.132-0.044-0.169-0.057c-0.039-0.008-0.063-0.013-0.063-0.013
		s-0.015,0.021-0.039,0.058c-0.021,0.036-0.063,0.09-0.097,0.145c-0.037,0.056-0.08,0.115-0.135,0.182
		c-0.047,0.058-0.098,0.121-0.155,0.193c-0.056,0.065-0.109,0.131-0.155,0.192c-0.056,0.068-0.1,0.132-0.139,0.199
		c-0.048,0.069-0.079,0.138-0.111,0.213c-0.034,0.073-0.051,0.149-0.073,0.232c-0.037,0.159-0.055,0.336-0.04,0.521
		c0.01,0.182,0.047,0.374,0.101,0.557C-4.83,13.248-4.797,13.338-4.768,13.418z"/>
	<path fill="#465B00" d="M-2.47,15.652c0.021,0.056,0.045,0.11,0.064,0.154c0.011,0.026,0.021,0.051,0.033,0.072
		c0.225-0.403,0.566-1.067,0.529-1.317c0,0,0.121,0.492-0.402,1.384c0.024-0.003,0.051-0.008,0.076-0.016
		c0.048-0.012,0.108-0.026,0.166-0.05c0.061-0.022,0.122-0.052,0.186-0.087c0.124-0.072,0.247-0.173,0.346-0.3
		c0.101-0.126,0.176-0.28,0.216-0.45c0.022-0.082,0.03-0.174,0.035-0.261c0.004-0.089-0.01-0.182-0.024-0.268
		c-0.02-0.088-0.05-0.175-0.083-0.251c-0.041-0.081-0.087-0.152-0.135-0.214c-0.053-0.063-0.11-0.117-0.163-0.158
		c-0.05-0.041-0.116-0.068-0.161-0.09c-0.045-0.022-0.091-0.031-0.116-0.039c-0.027-0.006-0.044-0.009-0.044-0.009
		s-0.011,0.014-0.027,0.04c-0.014,0.024-0.043,0.062-0.066,0.099c-0.025,0.039-0.056,0.08-0.093,0.126
		C-2.166,14.056-2.2,14.1-2.24,14.15c-0.038,0.046-0.075,0.091-0.107,0.133c-0.038,0.047-0.068,0.091-0.096,0.138
		c-0.033,0.048-0.055,0.095-0.076,0.146c-0.024,0.051-0.035,0.104-0.051,0.161c-0.025,0.109-0.038,0.231-0.027,0.359
		c0.006,0.126,0.032,0.258,0.069,0.385C-2.513,15.535-2.49,15.597-2.47,15.652z"/>
	<path fill="#465B00" d="M7.727,21.318c-0.033-0.031-0.067-0.068-0.106-0.113c-0.033-0.039-0.07-0.08-0.113-0.128
		c-0.039-0.046-0.075-0.091-0.111-0.129c-0.04-0.046-0.078-0.083-0.119-0.118c-0.042-0.041-0.084-0.07-0.132-0.102
		c-0.045-0.031-0.097-0.053-0.147-0.076c-0.104-0.045-0.224-0.078-0.352-0.09c-0.125-0.018-0.262-0.015-0.393,0.002
		C6.19,20.57,6.126,20.581,6.067,20.59c-0.059,0.012-0.117,0.025-0.163,0.037c-0.028,0.006-0.054,0.014-0.077,0.021
		c0.358,0.291,0.953,0.742,1.207,0.75c0,0-0.507,0.033-1.293-0.638c-0.003,0.024-0.002,0.054,0.002,0.078
		c0.002,0.05,0.006,0.111,0.021,0.172c0.011,0.063,0.027,0.13,0.053,0.197c0.051,0.136,0.127,0.272,0.236,0.394
		c0.105,0.121,0.244,0.223,0.404,0.291c0.078,0.037,0.166,0.061,0.25,0.08c0.088,0.02,0.183,0.021,0.27,0.021
		c0.09-0.005,0.182-0.021,0.262-0.04c0.088-0.024,0.166-0.06,0.234-0.097c0.07-0.041,0.134-0.088,0.184-0.133
		c0.049-0.043,0.09-0.103,0.116-0.144c0.028-0.041,0.046-0.085,0.06-0.108c0.012-0.023,0.018-0.041,0.018-0.041
		s-0.012-0.013-0.035-0.033C7.79,21.384,7.759,21.35,7.727,21.318z"/>
	<path fill="#465B00" d="M1.573,13.993c-0.042,0.045-0.087,0.102-0.126,0.167c-0.034,0.063-0.065,0.134-0.091,0.214
		c-0.02,0.074-0.035,0.157-0.04,0.24c-0.001,0.079,0,0.166,0.017,0.245c0.018,0.078,0.037,0.16,0.068,0.231
		c0.061,0.148,0.152,0.277,0.26,0.378c0.108,0.102,0.234,0.175,0.357,0.223c0.063,0.022,0.123,0.04,0.182,0.052
		c0.055,0.013,0.111,0.018,0.156,0.022c0.023,0.003,0.05,0.003,0.071,0.003c-0.603-0.734-0.563-1.198-0.563-1.198
		c0.002,0.231,0.407,0.785,0.67,1.119c0.006-0.021,0.014-0.045,0.021-0.07c0.011-0.042,0.024-0.095,0.036-0.149
		c0.011-0.053,0.021-0.112,0.027-0.171c0.016-0.12,0.021-0.243,0.008-0.359c-0.008-0.117-0.037-0.227-0.076-0.322
		c-0.021-0.05-0.041-0.095-0.068-0.138c-0.025-0.044-0.054-0.083-0.091-0.122c-0.031-0.039-0.063-0.074-0.104-0.111
		c-0.035-0.034-0.074-0.069-0.117-0.104c-0.041-0.04-0.082-0.075-0.115-0.105c-0.041-0.037-0.073-0.069-0.104-0.101
		c-0.025-0.031-0.059-0.061-0.074-0.081c-0.021-0.021-0.031-0.032-0.031-0.032s-0.014,0.005-0.038,0.015
		c-0.022,0.011-0.063,0.026-0.101,0.052C1.669,13.915,1.612,13.949,1.573,13.993z"/>
	<path fill="#465B00" d="M-4.938,14.53c-0.035-0.008-0.073-0.014-0.115-0.017c-0.068-0.009-0.154-0.021-0.241-0.026
		c-0.085-0.007-0.181-0.012-0.273-0.01c-0.191,0-0.386,0.019-0.563,0.06c-0.182,0.039-0.347,0.104-0.489,0.186
		c-0.073,0.045-0.141,0.083-0.202,0.137c-0.063,0.051-0.12,0.101-0.173,0.166c-0.054,0.056-0.102,0.116-0.152,0.189
		c-0.046,0.062-0.093,0.131-0.141,0.203c-0.054,0.075-0.1,0.143-0.141,0.203c-0.049,0.071-0.094,0.129-0.137,0.181
		c-0.042,0.048-0.082,0.104-0.111,0.133C-7.705,15.969-7.72,15.99-7.72,15.99s0.011,0.022,0.03,0.058
		c0.022,0.032,0.055,0.092,0.102,0.146c0.049,0.054,0.114,0.135,0.192,0.187c0.078,0.057,0.176,0.116,0.286,0.164
		c0.104,0.04,0.223,0.075,0.353,0.099c0.12,0.016,0.253,0.022,0.384,0.014c0.124-0.015,0.259-0.035,0.381-0.076
		c0.119-0.041,0.243-0.09,0.348-0.154c0.22-0.126,0.403-0.294,0.538-0.483c0.137-0.19,0.226-0.402,0.276-0.605
		c0.023-0.103,0.038-0.199,0.044-0.292c0.009-0.09,0.005-0.18,0.002-0.251c0-0.04-0.004-0.079-0.009-0.112
		c-1.026,1.091-1.761,1.124-1.761,1.124C-6.191,15.754-5.409,15.008-4.938,14.53z"/>
	<path fill="#465B00" d="M-6.777,19.023c-0.006-0.039-0.016-0.078-0.027-0.109C-7.647,20.152-8.368,20.3-8.368,20.3
		c0.351-0.106,1.007-0.966,1.397-1.512c-0.036-0.002-0.074-0.002-0.116,0.002c-0.068,0.002-0.156,0.003-0.242,0.012
		c-0.085,0.007-0.18,0.017-0.271,0.033c-0.189,0.029-0.378,0.078-0.547,0.146c-0.174,0.067-0.326,0.158-0.454,0.262
		c-0.065,0.056-0.126,0.104-0.179,0.167c-0.054,0.06-0.102,0.116-0.145,0.188c-0.044,0.063-0.083,0.131-0.121,0.211
		c-0.036,0.068-0.071,0.146-0.107,0.225c-0.042,0.083-0.077,0.154-0.107,0.223c-0.037,0.078-0.073,0.145-0.107,0.2
		C-9.4,20.51-9.432,20.57-9.456,20.604c-0.023,0.037-0.035,0.062-0.035,0.062s0.014,0.021,0.039,0.053
		c0.026,0.028,0.068,0.082,0.123,0.13c0.057,0.045,0.134,0.113,0.219,0.152c0.086,0.044,0.192,0.087,0.308,0.117
		c0.109,0.021,0.231,0.039,0.364,0.042c0.121-0.003,0.253-0.019,0.381-0.048c0.121-0.032,0.251-0.074,0.365-0.135
		c0.111-0.06,0.226-0.127,0.32-0.207c0.197-0.158,0.352-0.354,0.456-0.562c0.105-0.21,0.16-0.433,0.178-0.642
		c0.006-0.104,0.006-0.203-0.002-0.295C-6.746,19.182-6.763,19.094-6.777,19.023z"/>
</g>
</svg>
