<?xml version="1.0" encoding="utf-8"?>
<!-- Generator: Adobe Illustrator 16.0.3, SVG Export Plug-In . SVG Version: 6.00 Build 0)  -->
<!DOCTYPE svg PUBLIC "-//W3C//DTD SVG 1.1//EN" "http://www.w3.org/Graphics/SVG/1.1/DTD/svg11.dtd">
<svg version="1.1" id="Layer_1" xmlns="http://www.w3.org/2000/svg" xmlns:xlink="http://www.w3.org/1999/xlink" x="0px" y="0px"
	 width="36px" height="36px" viewBox="0 0 36 36" enable-background="new 0 0 36 36" xml:space="preserve">
<g>
	<path fill="#465B00" d="M20.484,32.534c-0.238-4.007,0.994-7.045,1.471-7.859c0.227-0.413,0.488-0.821,0.756-1.235
		c0.25-0.426,0.559-0.816,0.85-1.221c0.283-0.408,0.621-0.77,0.924-1.152c0.351-0.334,0.658-0.707,1.002-1.014
		c0.365-0.277,0.677-0.613,1.033-0.841c0.358-0.219,0.676-0.481,1.004-0.651c0.336-0.159,0.641-0.32,0.914-0.467
		c0.277-0.135,0.541-0.191,0.75-0.27c0.422-0.145,0.67-0.242,0.67-0.242s-0.256,0.009-0.711,0.052
		c-0.225,0.031-0.51,0.032-0.82,0.105c-0.309,0.082-0.66,0.177-1.041,0.299c-0.379,0.124-0.753,0.343-1.167,0.545
		c-0.413,0.204-0.787,0.512-1.199,0.798c-0.392,0.311-0.765,0.666-1.144,1.029c-0.332,0.398-0.707,0.781-1.016,1.21
		c-0.617,0.856-1.176,1.753-1.583,2.646c-0.231,0.435-0.387,0.883-0.56,1.295c-0.049,0.123-0.077,0.229-0.12,0.349
		c0.142-1.118,0.315-2.281,0.54-3.437c0.252-1.338,0.594-2.652,1.006-3.847c0.211-0.596,0.445-1.155,0.691-1.678
		c0.265-0.51,0.533-0.982,0.822-1.393c0.293-0.404,0.594-0.753,0.883-1.044c0.301-0.278,0.58-0.506,0.836-0.658
		c0.242-0.178,0.463-0.263,0.604-0.345c0.146-0.075,0.222-0.115,0.222-0.115s-0.084,0.022-0.24,0.064
		c-0.153,0.053-0.404,0.078-0.678,0.224c-0.289,0.114-0.617,0.3-0.981,0.541c-0.354,0.253-0.735,0.57-1.095,0.973
		c-0.361,0.399-0.709,0.869-1.029,1.395c-0.307,0.529-0.613,1.102-0.857,1.72c-0.25,0.616-0.494,1.26-0.674,1.931
		c-0.076,0.267-0.13,0.544-0.197,0.815c0.002-0.158,0.002-0.314,0.004-0.474c0.002-3.019-0.072-6.038-0.194-8.302
		c-0.052-1.077-0.134-1.975-0.177-2.628c0.043-0.027,0.09-0.055,0.135-0.091c0.098-0.072,0.22-0.161,0.328-0.27
		c0.117-0.107,0.228-0.229,0.337-0.37C21,8.645,21.184,8.303,21.288,7.92c0.106-0.38,0.131-0.799,0.063-1.221
		c-0.026-0.208-0.094-0.421-0.166-0.623c-0.074-0.202-0.192-0.402-0.306-0.58c-0.128-0.183-0.276-0.35-0.425-0.492
		c-0.168-0.145-0.342-0.264-0.505-0.359c-0.181-0.093-0.359-0.157-0.519-0.2c-0.149-0.048-0.326-0.05-0.449-0.054
		c-0.121-0.007-0.233,0.015-0.299,0.021c-0.068,0.011-0.108,0.021-0.108,0.021s-0.009,0.04-0.024,0.116
		c-0.009,0.067-0.039,0.179-0.057,0.285c-0.022,0.112-0.052,0.233-0.092,0.373c-0.037,0.118-0.074,0.252-0.117,0.4
		c-0.045,0.141-0.087,0.275-0.118,0.402c-0.044,0.141-0.07,0.271-0.089,0.4c-0.028,0.141-0.033,0.267-0.035,0.403
		c-0.004,0.139,0.017,0.268,0.033,0.41c0.048,0.273,0.134,0.561,0.275,0.84c0.136,0.28,0.32,0.555,0.521,0.805
		c0.097,0.125,0.204,0.243,0.303,0.351c0.099,0.107,0.208,0.206,0.291,0.288c0.048,0.051,0.099,0.095,0.144,0.132
		c0.129-1.125,0.279-2.947-0.039-3.479c0,0,0.699,0.97,0.404,3.364c-0.051-0.646-0.093-1.016-0.093-1.016s-0.045,0.377-0.1,1.037
		c-0.044,0.661-0.138,1.604-0.196,2.735c-0.132,2.265-0.221,5.283-0.23,8.302c0,0.455,0,0.909,0.004,1.36
		c-0.125-0.571-0.25-1.146-0.411-1.701c-0.179-0.672-0.423-1.314-0.673-1.931c-0.246-0.618-0.551-1.19-0.858-1.72
		c-0.321-0.525-0.667-0.995-1.029-1.395c-0.359-0.402-0.741-0.72-1.095-0.973c-0.365-0.241-0.692-0.427-0.982-0.541
		c-0.272-0.146-0.523-0.171-0.677-0.224c-0.157-0.042-0.241-0.064-0.241-0.064s0.077,0.04,0.222,0.115
		c0.142,0.082,0.362,0.167,0.604,0.345c0.256,0.152,0.536,0.38,0.837,0.658c0.289,0.291,0.589,0.64,0.883,1.044
		c0.289,0.41,0.558,0.883,0.821,1.393c0.007,0.015,0.013,0.033,0.02,0.048c-0.011,0-0.021-0.001-0.033-0.001
		c-0.121,0-0.244,0.012-0.357,0.038c-0.115,0.024-0.22,0.067-0.31,0.118c-0.047,0.028-0.089,0.052-0.128,0.086
		c-0.04,0.033-0.075,0.064-0.109,0.105c-0.035,0.036-0.065,0.074-0.097,0.12c-0.029,0.039-0.059,0.083-0.088,0.129
		c-0.035,0.047-0.064,0.091-0.09,0.129c-0.032,0.045-0.059,0.081-0.086,0.114c-0.028,0.03-0.053,0.065-0.071,0.085
		c-0.018,0.021-0.028,0.033-0.028,0.033s0.007,0.015,0.02,0.037c0.014,0.021,0.034,0.059,0.064,0.093
		c0.031,0.033,0.072,0.085,0.121,0.118c0.05,0.035,0.112,0.073,0.182,0.104c0.066,0.025,0.141,0.048,0.224,0.063
		c0.076,0.01,0.16,0.014,0.243,0.008c0.079-0.009,0.165-0.021,0.241-0.047c0.075-0.026,0.154-0.058,0.22-0.099
		c0.14-0.079,0.256-0.186,0.341-0.307c0.032-0.045,0.041-0.095,0.064-0.142c0.117,0.281,0.242,0.545,0.349,0.845
		c0.413,1.194,0.754,2.509,1.006,3.847c0.14,0.713,0.258,1.43,0.362,2.139c-0.275-0.819-0.652-1.65-1.109-2.45
		c-0.251-0.441-0.578-0.843-0.86-1.257c-0.34-0.375-0.663-0.756-1.025-1.072c-0.383-0.297-0.714-0.629-1.113-0.831
		c-0.392-0.208-0.734-0.449-1.104-0.562c-0.363-0.128-0.698-0.228-0.991-0.314c-0.301-0.063-0.572-0.075-0.788-0.106
		c-0.436-0.047-0.679-0.059-0.679-0.059s0.234,0.1,0.635,0.248c0.199,0.078,0.447,0.146,0.712,0.27
		c0.256,0.149,0.542,0.314,0.855,0.476c0.317,0.157,0.596,0.438,0.93,0.657c0.336,0.22,0.599,0.572,0.93,0.854
		c0.313,0.306,0.564,0.692,0.874,1.03c0.25,0.391,0.54,0.761,0.765,1.177c0.234,0.411,0.485,0.813,0.671,1.244
		c0.208,0.42,0.405,0.839,0.572,1.257C18.446,26,18.421,26.8,18.656,27.49c0.119,0.379,0.031,0.72,0.127,1.023
		c0.047,0.502,0.09,0.983,0.128,1.43c0.079,1.029,0.161,1.992,0.19,2.598 M16.125,17.838c0.173-0.024,0.497-0.298,0.773-0.561
		c0.018,0.039,0.033,0.083,0.051,0.123C16.458,17.817,16.125,17.838,16.125,17.838z"/>
	<path fill="#465B00" d="M6.984,11.823c0.11,0.264,0.255,0.537,0.429,0.792c0.176,0.233,0.377,0.483,0.603,0.678
		c0.225,0.191,0.469,0.384,0.724,0.521c0.514,0.293,1.067,0.465,1.613,0.513c0.544,0.053,1.078-0.021,1.543-0.16
		c0.235-0.074,0.449-0.157,0.644-0.254c0.192-0.09,0.368-0.205,0.508-0.295c0.082-0.049,0.153-0.104,0.216-0.153
		c-3.416-0.779-4.354-2.221-4.354-2.221c0.534,0.673,2.966,1.369,4.485,1.751c-0.027-0.077-0.059-0.162-0.101-0.251
		c-0.066-0.146-0.139-0.336-0.231-0.516c-0.09-0.181-0.192-0.376-0.305-0.564c-0.226-0.381-0.493-0.752-0.788-1.066
		c-0.293-0.318-0.622-0.568-0.953-0.767c-0.178-0.09-0.333-0.181-0.515-0.242c-0.179-0.065-0.343-0.12-0.539-0.153
		C9.785,9.398,9.607,9.369,9.4,9.356C9.223,9.333,9.028,9.32,8.824,9.311C8.612,9.294,8.419,9.278,8.249,9.266
		C8.049,9.252,7.878,9.23,7.72,9.204c-0.146-0.03-0.304-0.045-0.396-0.065C7.218,9.121,7.163,9.113,7.163,9.113
		S7.128,9.159,7.082,9.244C7.04,9.325,6.958,9.461,6.908,9.621c-0.055,0.161-0.138,0.388-0.15,0.606
		c-0.022,0.227-0.025,0.49,0.007,0.768C6.808,11.255,6.879,11.537,6.984,11.823z"/>
	<path fill="#465B00" d="M10.525,17.597c0.053-0.044,0.097-0.092,0.137-0.134c-2.527-0.17-3.36-1.094-3.36-1.094
		c0.457,0.42,2.272,0.642,3.401,0.743c-0.028-0.052-0.06-0.109-0.101-0.168c-0.063-0.097-0.138-0.225-0.224-0.343
		c-0.084-0.117-0.179-0.246-0.281-0.367c-0.204-0.246-0.437-0.481-0.683-0.673c-0.245-0.193-0.508-0.336-0.767-0.439
		C8.51,15.078,8.39,15.03,8.252,15.007c-0.135-0.026-0.258-0.046-0.402-0.048c-0.131-0.007-0.262-0.008-0.411,0.007
		c-0.13,0.004-0.271,0.017-0.418,0.033c-0.152,0.013-0.292,0.022-0.415,0.033c-0.145,0.013-0.269,0.016-0.385,0.016
		C6.114,15.043,6,15.05,5.931,15.046c-0.077-0.001-0.118,0-0.118,0s-0.019,0.036-0.043,0.103c-0.021,0.063-0.064,0.168-0.082,0.289
		c-0.021,0.121-0.054,0.292-0.038,0.45c0.01,0.164,0.037,0.353,0.092,0.547c0.06,0.181,0.142,0.374,0.25,0.566
		c0.108,0.176,0.243,0.355,0.395,0.517c0.152,0.147,0.324,0.303,0.507,0.416c0.183,0.111,0.378,0.221,0.576,0.29
		c0.4,0.15,0.815,0.211,1.21,0.184c0.395-0.023,0.768-0.136,1.084-0.289c0.159-0.079,0.303-0.163,0.431-0.254
		C10.322,17.778,10.435,17.677,10.525,17.597z"/>
	<path fill="#465B00" d="M33.743,14.793c-0.029-0.2-0.082-0.383-0.14-0.537c-0.049-0.149-0.15-0.294-0.219-0.396
		c-0.064-0.102-0.148-0.182-0.191-0.23c-0.049-0.049-0.082-0.076-0.082-0.076s-0.037,0.016-0.106,0.049
		c-0.062,0.032-0.168,0.072-0.265,0.119c-0.104,0.049-0.221,0.096-0.356,0.144c-0.118,0.04-0.249,0.088-0.394,0.141
		c-0.141,0.045-0.274,0.09-0.396,0.139c-0.14,0.047-0.26,0.102-0.376,0.161c-0.131,0.06-0.235,0.13-0.348,0.208
		c-0.116,0.079-0.208,0.171-0.313,0.268c-0.193,0.198-0.375,0.437-0.521,0.714c-0.147,0.274-0.265,0.584-0.349,0.894
		c-0.045,0.151-0.078,0.308-0.107,0.45c-0.029,0.144-0.046,0.288-0.064,0.403c-0.013,0.07-0.019,0.136-0.021,0.195
		c0.988-0.554,2.554-1.498,2.8-2.068c0,0-0.383,1.184-2.62,2.371c0.053,0.021,0.114,0.047,0.18,0.065
		c0.114,0.037,0.258,0.085,0.41,0.109c0.154,0.031,0.318,0.05,0.496,0.057c0.354,0.011,0.738-0.04,1.109-0.179
		c0.369-0.136,0.724-0.36,1.027-0.662c0.153-0.144,0.287-0.322,0.408-0.5c0.121-0.178,0.215-0.39,0.293-0.585
		c0.072-0.211,0.123-0.429,0.149-0.634C33.766,15.192,33.762,14.981,33.743,14.793z"/>
	<path fill="#465B00" d="M28.32,11.449c0,0-0.228,0.823-1.728,1.704c0.036,0.015,0.08,0.029,0.125,0.04
		c0.08,0.022,0.181,0.05,0.285,0.063c0.106,0.017,0.222,0.024,0.343,0.024c0.242-0.004,0.506-0.05,0.756-0.156
		c0.25-0.104,0.486-0.268,0.686-0.484c0.102-0.103,0.188-0.23,0.265-0.354c0.078-0.127,0.136-0.275,0.185-0.412
		c0.043-0.146,0.07-0.298,0.084-0.438c0.007-0.153-0.002-0.296-0.021-0.425c-0.025-0.137-0.068-0.262-0.111-0.365
		c-0.039-0.102-0.113-0.197-0.162-0.265c-0.049-0.068-0.108-0.12-0.139-0.153c-0.035-0.031-0.059-0.05-0.059-0.05
		s-0.026,0.013-0.072,0.037c-0.042,0.024-0.113,0.056-0.179,0.09c-0.071,0.037-0.147,0.072-0.241,0.109
		c-0.08,0.031-0.167,0.066-0.266,0.107c-0.096,0.035-0.187,0.071-0.268,0.107c-0.095,0.037-0.176,0.077-0.253,0.123
		c-0.088,0.044-0.157,0.095-0.231,0.153c-0.077,0.056-0.137,0.123-0.207,0.192c-0.129,0.142-0.246,0.311-0.336,0.506
		c-0.094,0.192-0.164,0.407-0.213,0.623c-0.026,0.104-0.045,0.214-0.061,0.313s-0.023,0.2-0.031,0.278
		c-0.008,0.049-0.011,0.094-0.011,0.135C27.122,12.542,28.169,11.848,28.32,11.449z"/>
	<path fill="#465B00" d="M22.954,12.237c0.096,0.234,0.239,0.438,0.409,0.596c0.171,0.16,0.371,0.275,0.564,0.352
		c0.1,0.036,0.193,0.063,0.285,0.082c0.087,0.021,0.178,0.028,0.249,0.034c0.039,0.005,0.079,0.006,0.112,0.005
		c-0.95-1.158-0.889-1.891-0.889-1.891c0.004,0.366,0.644,1.239,1.057,1.767c0.012-0.033,0.021-0.07,0.031-0.111
		c0.017-0.066,0.041-0.15,0.057-0.235c0.018-0.084,0.035-0.178,0.045-0.27c0.023-0.189,0.031-0.385,0.014-0.566
		c-0.016-0.186-0.061-0.357-0.121-0.509c-0.037-0.078-0.064-0.15-0.109-0.218c-0.043-0.069-0.084-0.132-0.143-0.193
		c-0.05-0.061-0.104-0.116-0.168-0.175c-0.056-0.054-0.119-0.109-0.185-0.166c-0.067-0.063-0.128-0.117-0.183-0.166
		c-0.064-0.058-0.117-0.109-0.162-0.159c-0.043-0.048-0.092-0.095-0.118-0.127c-0.03-0.033-0.048-0.051-0.048-0.051
		s-0.023,0.008-0.062,0.022c-0.034,0.018-0.099,0.042-0.157,0.082c-0.061,0.041-0.148,0.096-0.211,0.166
		c-0.065,0.07-0.137,0.16-0.199,0.263c-0.053,0.099-0.104,0.211-0.144,0.337c-0.03,0.117-0.055,0.248-0.063,0.379
		c-0.002,0.125,0.002,0.262,0.026,0.388C22.871,11.995,22.902,12.125,22.954,12.237z"/>
	<path fill="#465B00" d="M25.471,14.759c-0.082,0.029-0.16,0.065-0.224,0.093c-0.039,0.016-0.074,0.032-0.104,0.049
		c0.584,0.325,1.547,0.821,1.909,0.768c0,0-0.714,0.175-2.006-0.583c0.004,0.034,0.013,0.073,0.022,0.11
		c0.017,0.069,0.039,0.157,0.072,0.24c0.033,0.088,0.074,0.177,0.125,0.269c0.105,0.18,0.25,0.358,0.436,0.502
		c0.183,0.145,0.406,0.254,0.652,0.313c0.119,0.032,0.252,0.044,0.377,0.051c0.129,0.005,0.265-0.014,0.388-0.035
		c0.128-0.028,0.253-0.072,0.364-0.121c0.117-0.06,0.221-0.126,0.311-0.194c0.091-0.077,0.169-0.161,0.229-0.237
		c0.061-0.071,0.101-0.168,0.131-0.233c0.031-0.064,0.045-0.132,0.058-0.169c0.008-0.039,0.013-0.063,0.013-0.063
		s-0.021-0.015-0.058-0.039c-0.036-0.021-0.09-0.063-0.144-0.097c-0.057-0.037-0.115-0.08-0.183-0.135
		c-0.057-0.047-0.121-0.098-0.192-0.155c-0.066-0.056-0.131-0.109-0.192-0.155c-0.067-0.056-0.132-0.1-0.199-0.139
		c-0.069-0.048-0.138-0.079-0.213-0.111c-0.074-0.034-0.149-0.051-0.231-0.073c-0.16-0.037-0.336-0.055-0.521-0.04
		c-0.182,0.01-0.374,0.047-0.557,0.101C25.641,14.696,25.551,14.729,25.471,14.759z"/>
	<path fill="#465B00" d="M30.814,20.145c-0.049-0.045-0.101-0.098-0.156-0.164c-0.049-0.056-0.102-0.115-0.163-0.186
		c-0.056-0.066-0.108-0.131-0.163-0.188c-0.059-0.065-0.111-0.121-0.172-0.172c-0.061-0.059-0.122-0.101-0.189-0.146
		c-0.068-0.047-0.14-0.076-0.217-0.113c-0.15-0.063-0.32-0.11-0.506-0.129c-0.182-0.022-0.377-0.019-0.566,0.003
		c-0.092,0.008-0.187,0.024-0.271,0.04c-0.085,0.017-0.169,0.037-0.236,0.054c-0.041,0.008-0.079,0.019-0.112,0.029
		c0.521,0.422,1.383,1.076,1.748,1.086c0,0-0.732,0.049-1.875-0.921c0,0.034,0,0.074,0.004,0.112c0.004,0.07,0.011,0.16,0.029,0.249
		c0.018,0.093,0.043,0.187,0.077,0.286c0.073,0.195,0.185,0.396,0.341,0.568c0.155,0.176,0.356,0.321,0.59,0.422
		c0.111,0.054,0.24,0.086,0.363,0.115c0.125,0.027,0.262,0.032,0.387,0.032c0.131-0.006,0.262-0.028,0.381-0.058
		c0.125-0.036,0.238-0.086,0.338-0.137c0.104-0.061,0.195-0.13,0.267-0.195c0.071-0.06,0.127-0.146,0.169-0.207
		c0.041-0.058,0.067-0.121,0.085-0.155c0.017-0.037,0.024-0.06,0.024-0.06s-0.018-0.02-0.051-0.049
		C30.907,20.239,30.861,20.188,30.814,20.145z"/>
	<path fill="#465B00" d="M22.943,17.281c0.002,0.024,0.008,0.051,0.016,0.076c0.012,0.048,0.025,0.108,0.05,0.166
		c0.022,0.061,0.052,0.122,0.087,0.186c0.072,0.124,0.172,0.247,0.299,0.346c0.127,0.101,0.28,0.176,0.451,0.216
		c0.082,0.022,0.174,0.03,0.26,0.035c0.09,0.004,0.183-0.01,0.269-0.024c0.088-0.02,0.175-0.05,0.251-0.083
		c0.082-0.041,0.152-0.087,0.214-0.135c0.063-0.053,0.117-0.11,0.158-0.163c0.041-0.05,0.069-0.116,0.09-0.161
		c0.021-0.045,0.031-0.091,0.039-0.116c0.006-0.027,0.009-0.044,0.009-0.044s-0.014-0.011-0.039-0.027
		c-0.025-0.014-0.063-0.043-0.1-0.066c-0.039-0.025-0.08-0.056-0.125-0.093c-0.04-0.033-0.083-0.067-0.133-0.107
		c-0.045-0.038-0.09-0.075-0.133-0.107c-0.047-0.038-0.092-0.068-0.138-0.096c-0.048-0.033-0.095-0.055-0.147-0.076
		c-0.051-0.024-0.103-0.035-0.16-0.051c-0.109-0.025-0.23-0.038-0.359-0.027c-0.126,0.006-0.258,0.032-0.385,0.069
		c-0.063,0.017-0.124,0.039-0.18,0.06c-0.055,0.021-0.11,0.045-0.153,0.064c-0.026,0.011-0.051,0.021-0.071,0.033
		c0.402,0.225,1.066,0.566,1.316,0.529C24.328,17.684,23.835,17.805,22.943,17.281z"/>
	<path fill="#465B00" d="M14.878,13.418c0.029,0.081,0.065,0.16,0.093,0.224c0.016,0.039,0.032,0.074,0.049,0.104
		c0.325-0.585,0.821-1.547,0.768-1.909c0,0,0.175,0.714-0.583,2.006c0.034-0.004,0.073-0.012,0.11-0.022
		c0.069-0.017,0.157-0.038,0.24-0.072c0.088-0.033,0.177-0.074,0.269-0.126c0.18-0.105,0.358-0.25,0.502-0.435
		c0.145-0.184,0.254-0.406,0.313-0.652c0.032-0.119,0.044-0.253,0.051-0.378c0.005-0.129-0.014-0.264-0.035-0.388
		c-0.028-0.128-0.072-0.253-0.121-0.364c-0.06-0.118-0.126-0.221-0.194-0.312c-0.077-0.091-0.161-0.169-0.237-0.229
		c-0.071-0.06-0.168-0.1-0.233-0.131c-0.064-0.03-0.132-0.044-0.169-0.057c-0.039-0.008-0.063-0.013-0.063-0.013
		s-0.015,0.021-0.039,0.058c-0.021,0.036-0.063,0.09-0.097,0.145c-0.037,0.056-0.08,0.115-0.135,0.182
		c-0.047,0.058-0.098,0.121-0.155,0.193c-0.056,0.065-0.109,0.131-0.155,0.192c-0.056,0.068-0.1,0.132-0.139,0.199
		c-0.048,0.069-0.079,0.138-0.111,0.213c-0.034,0.073-0.051,0.149-0.073,0.232c-0.037,0.159-0.055,0.336-0.04,0.521
		c0.01,0.182,0.047,0.374,0.101,0.557C14.816,13.248,14.848,13.338,14.878,13.418z"/>
	<path fill="#465B00" d="M17.176,15.652c0.021,0.056,0.045,0.11,0.064,0.154c0.011,0.026,0.021,0.051,0.033,0.072
		c0.225-0.403,0.566-1.067,0.529-1.317c0,0,0.121,0.492-0.402,1.384c0.024-0.003,0.051-0.008,0.076-0.016
		c0.048-0.012,0.108-0.026,0.166-0.05c0.061-0.022,0.122-0.052,0.186-0.087c0.124-0.072,0.247-0.173,0.346-0.3
		c0.101-0.126,0.176-0.28,0.216-0.45c0.022-0.082,0.03-0.174,0.035-0.261c0.004-0.089-0.01-0.182-0.024-0.268
		c-0.02-0.088-0.05-0.175-0.083-0.251c-0.041-0.081-0.087-0.152-0.135-0.214c-0.053-0.063-0.11-0.117-0.163-0.158
		c-0.05-0.041-0.116-0.068-0.161-0.09c-0.045-0.022-0.091-0.031-0.116-0.039c-0.027-0.006-0.044-0.009-0.044-0.009
		s-0.011,0.014-0.027,0.04c-0.014,0.024-0.043,0.062-0.066,0.099c-0.025,0.039-0.056,0.08-0.093,0.126
		c-0.033,0.039-0.067,0.083-0.107,0.133c-0.038,0.046-0.075,0.091-0.107,0.133c-0.038,0.047-0.068,0.091-0.096,0.138
		c-0.033,0.048-0.055,0.095-0.076,0.146c-0.024,0.051-0.035,0.104-0.051,0.161c-0.025,0.109-0.038,0.231-0.027,0.359
		c0.006,0.126,0.032,0.258,0.069,0.385C17.133,15.535,17.156,15.597,17.176,15.652z"/>
	<path fill="#465B00" d="M27.372,21.318c-0.033-0.031-0.067-0.068-0.106-0.113c-0.033-0.039-0.07-0.08-0.113-0.128
		c-0.039-0.046-0.076-0.091-0.112-0.129c-0.04-0.046-0.078-0.083-0.119-0.118c-0.042-0.041-0.084-0.07-0.132-0.102
		c-0.045-0.031-0.096-0.052-0.148-0.076c-0.104-0.045-0.223-0.078-0.351-0.09c-0.125-0.017-0.261-0.014-0.392,0.002
		c-0.063,0.006-0.127,0.017-0.186,0.026c-0.059,0.011-0.117,0.025-0.163,0.037c-0.028,0.006-0.054,0.013-0.077,0.021
		c0.358,0.291,0.953,0.742,1.207,0.75c0,0-0.507,0.033-1.293-0.637c-0.003,0.024-0.002,0.053,0.002,0.078
		c0.002,0.049,0.006,0.111,0.021,0.172c0.011,0.063,0.028,0.129,0.053,0.197c0.05,0.136,0.127,0.273,0.236,0.393
		c0.106,0.121,0.245,0.223,0.405,0.291c0.078,0.037,0.166,0.061,0.25,0.08c0.088,0.02,0.182,0.021,0.269,0.022
		c0.09-0.005,0.181-0.021,0.262-0.04c0.087-0.025,0.166-0.059,0.234-0.096c0.071-0.041,0.134-0.088,0.184-0.133
		c0.048-0.043,0.089-0.103,0.116-0.144c0.029-0.041,0.046-0.085,0.059-0.108c0.012-0.024,0.018-0.041,0.018-0.041
		s-0.012-0.013-0.035-0.033C27.436,21.384,27.404,21.35,27.372,21.318z"/>
	<path fill="#465B00" d="M21.219,13.993c-0.042,0.045-0.087,0.102-0.126,0.167c-0.034,0.063-0.065,0.134-0.091,0.214
		c-0.02,0.074-0.035,0.157-0.04,0.24c-0.001,0.079,0,0.166,0.017,0.245c0.017,0.078,0.037,0.16,0.068,0.231
		c0.061,0.148,0.152,0.277,0.26,0.378c0.108,0.102,0.234,0.175,0.357,0.223c0.063,0.022,0.123,0.04,0.182,0.052
		c0.055,0.013,0.111,0.018,0.156,0.022c0.023,0.003,0.05,0.003,0.071,0.003c-0.603-0.734-0.563-1.198-0.563-1.198
		c0.002,0.231,0.407,0.785,0.67,1.119c0.006-0.021,0.014-0.045,0.02-0.07c0.011-0.042,0.025-0.095,0.037-0.149
		c0.01-0.053,0.021-0.112,0.027-0.171c0.016-0.12,0.021-0.243,0.008-0.359c-0.008-0.117-0.037-0.227-0.076-0.322
		c-0.022-0.05-0.041-0.095-0.069-0.138c-0.026-0.044-0.054-0.083-0.091-0.122c-0.031-0.039-0.064-0.074-0.105-0.111
		c-0.035-0.034-0.074-0.069-0.117-0.104c-0.041-0.04-0.082-0.075-0.115-0.105c-0.041-0.037-0.073-0.069-0.104-0.101
		c-0.025-0.031-0.058-0.061-0.074-0.081c-0.02-0.021-0.031-0.032-0.031-0.032s-0.014,0.005-0.038,0.015
		c-0.022,0.011-0.063,0.026-0.101,0.052C21.314,13.915,21.258,13.949,21.219,13.993z"/>
	<path fill="#465B00" d="M14.708,14.53c-0.035-0.008-0.073-0.014-0.115-0.017c-0.068-0.009-0.154-0.021-0.241-0.026
		c-0.085-0.007-0.181-0.012-0.273-0.01c-0.191,0-0.386,0.019-0.563,0.06c-0.182,0.039-0.347,0.104-0.489,0.186
		c-0.073,0.045-0.141,0.083-0.202,0.137c-0.063,0.051-0.12,0.101-0.173,0.166c-0.054,0.056-0.102,0.116-0.152,0.189
		c-0.046,0.062-0.093,0.131-0.141,0.203c-0.054,0.075-0.1,0.143-0.141,0.203c-0.049,0.071-0.094,0.129-0.137,0.181
		c-0.042,0.048-0.082,0.104-0.111,0.133c-0.029,0.034-0.044,0.055-0.044,0.055s0.011,0.022,0.03,0.058
		c0.022,0.032,0.055,0.092,0.102,0.146c0.049,0.054,0.114,0.135,0.192,0.187c0.078,0.057,0.176,0.116,0.286,0.164
		c0.104,0.04,0.223,0.075,0.353,0.099c0.12,0.016,0.253,0.022,0.384,0.014c0.124-0.015,0.259-0.035,0.381-0.076
		c0.119-0.041,0.243-0.09,0.348-0.154c0.22-0.126,0.403-0.294,0.538-0.483c0.137-0.19,0.226-0.402,0.276-0.605
		c0.023-0.103,0.038-0.199,0.044-0.292c0.009-0.09,0.005-0.18,0.002-0.251c0-0.04-0.004-0.079-0.009-0.112
		c-1.026,1.091-1.761,1.124-1.761,1.124C13.454,15.754,14.237,15.008,14.708,14.53z"/>
	<path fill="#465B00" d="M12.868,19.023c-0.006-0.039-0.016-0.078-0.027-0.109c-0.843,1.238-1.563,1.386-1.563,1.386
		c0.351-0.106,1.007-0.966,1.397-1.512c-0.036-0.002-0.074-0.002-0.116,0.002c-0.068,0.002-0.156,0.003-0.242,0.012
		c-0.085,0.007-0.18,0.017-0.271,0.033c-0.189,0.029-0.378,0.078-0.547,0.146c-0.174,0.067-0.326,0.158-0.454,0.261
		c-0.065,0.056-0.126,0.104-0.179,0.167c-0.054,0.06-0.102,0.117-0.145,0.189c-0.044,0.063-0.083,0.131-0.121,0.211
		c-0.036,0.068-0.071,0.146-0.107,0.224c-0.042,0.083-0.077,0.155-0.107,0.223c-0.037,0.078-0.073,0.144-0.107,0.2
		c-0.034,0.054-0.065,0.115-0.089,0.148c-0.023,0.037-0.035,0.061-0.035,0.061s0.014,0.021,0.039,0.053
		c0.026,0.028,0.068,0.082,0.123,0.129c0.057,0.045,0.134,0.114,0.219,0.153c0.086,0.044,0.192,0.087,0.308,0.117
		c0.109,0.022,0.231,0.039,0.364,0.042c0.121-0.003,0.253-0.018,0.381-0.047c0.121-0.033,0.251-0.075,0.365-0.135
		c0.111-0.06,0.226-0.127,0.32-0.207c0.197-0.158,0.352-0.354,0.456-0.562c0.105-0.21,0.16-0.433,0.178-0.642
		c0.006-0.104,0.006-0.203-0.002-0.295C12.9,19.182,12.883,19.094,12.868,19.023z"/>
</g>
</svg>
