<?xml version="1.0" standalone="no"?>
<!DOCTYPE svg PUBLIC "-//W3C//DTD SVG 1.1//EN" "http://www.w3.org/Graphics/SVG/1.1/DTD/svg11.dtd" >
<svg xmlns="http://www.w3.org/2000/svg">
<metadata>Generated by IcoMoon</metadata>
<defs>
<font id="icons" horiz-adv-x="512">
<font-face units-per-em="512" ascent="480" descent="-32" />
<missing-glyph horiz-adv-x="512" />
<glyph unicode="&#x20;" d="" horiz-adv-x="256" />
<glyph unicode="&#xe600;" d="M469.344 432h-69.344v32c0 8.848-7.152 16-16 16s-16-7.152-16-16v-32h-96v32c0 8.848-7.168 16-16 16s-16-7.152-16-16v-32h-96v32c0 8.848-7.168 16-16 16s-16-7.152-16-16v-32h-69.328c-23.568 0-42.672-19.088-42.672-42.656v-378.672c0-23.568 19.104-42.672 42.672-42.672h426.672c23.568 0 42.656 19.104 42.656 42.672v378.672c0 23.568-19.088 42.656-42.656 42.656zM480 10.672c0-5.888-4.784-10.672-10.656-10.672h-426.672c-5.888 0-10.672 4.784-10.672 10.672v378.672c0 5.872 4.784 10.656 10.672 10.656h69.328v-32c0-8.848 7.168-16 16-16s16 7.152 16 16v32h96v-32c0-8.848 7.168-16 16-16s16 7.152 16 16v32h96v-32c0-8.848 7.152-16 16-16s16 7.152 16 16v32h69.344c5.872 0 10.656-4.784 10.656-10.656v-378.672zM112 288h64v-48h-64zM112 208h64v-48h-64zM112 128h64v-48h-64zM224 128h64v-48h-64zM224 208h64v-48h-64zM224 288h64v-48h-64zM336 128h64v-48h-64zM336 208h64v-48h-64zM336 288h64v-48h-64z" />
<glyph unicode="&#xe601;" d="M544 29.417c0-22.75 13.014-42.454 32-52.092v-7.969c-5.313-0.727-10.736-1.112-16.25-1.112-34.004 0-64.674 14.264-86.361 37.132-13.111-3.491-27.001-5.376-41.389-5.376-79.529 0-144 57.308-144 128 0 70.692 64.471 128 144 128 79.529 0 144-57.308 144-128 0-27.674-9.882-53.296-26.678-74.233-3.412-7.412-5.322-15.656-5.322-24.35zM256 480c139.229 0 252.496-90.307 255.918-202.76-24.591 10.96-51.793 16.76-79.918 16.76-47.78 0-92.908-16.723-127.069-47.089-35.423-31.486-54.931-73.717-54.931-118.911 0-22.336 4.772-43.944 13.868-63.894-2.614-0.063-5.234-0.106-7.868-0.106-13.578 0-26.905 0.867-39.912 2.522-54.989-54.989-120.625-64.85-184.088-66.298v13.458c34.268 16.789 64 47.37 64 82.318 0 4.877-0.379 9.665-1.082 14.348-57.898 38.132-94.918 96.377-94.918 161.652 0 114.875 114.615 208 256 208z" horiz-adv-x="576" />
<glyph unicode="&#xe602;" d="M426.672 480h-341.33c-46.936 0-85.342-38.407-85.342-85.344v-341.313c0-46.969 38.406-85.343 85.342-85.343l341.33 0.001c46.938 0 85.328 38.373 85.328 85.344v341.311c0 46.937-38.391 85.344-85.328 85.344zM435.296 224h-83.296v-224h-96v224h-46.263v73.282h46.263v47.593c0 64.671 27.896 103.125 103.935 103.125h87.622v-79.285h-71.565c-21.241 0.035-23.876-11.076-23.876-31.756l-0.116-39.677h96l-12.704-73.282z" />
<glyph unicode="&#xe603;" d="M136.192 378.137c-97.843-56.781-92.211-149.248-88.832-183.45 126.387 149.683 315.418 142.413 315.418 142.413s-267.981-91.879-346.701-276.199c-6.195-14.592 29.184-33.51 37.248-16.307 24.090 51.251 57.677 89.702 57.677 89.702 49.562-18.457 135.245-40.038 196.019 2.688 80.666 56.807 72.423 182.681 187.623 243.968 26.905 14.336-225.792 74.163-358.451-2.816z" />
<glyph unicode="&#xe604;" d="M512 176l-96 96v144h-64v-80l-96 96-256-256v-16h64v-160h160v96h64v-96h160v160h64z" />
<glyph unicode="&#xe605;" d="M442 270.5l70-46.5-70-46.5q0-1-0.75-3t-1.25-2.5l37.5-76-84.5-5.5q-0.5-0.5-1.75-2t-1.75-2l-5.5-84-75.5 37q-1 0-3-0.75t-3-0.75l-46.5-70-46.5 70q-1 0-3 0.75t-3 0.75l-75.5-37-5.5 84.5q-0.5 0.5-2 1.75t-2 1.75l-84 5.5 37.5 76q-0.5 0.5-1.25 2.5t-0.75 3l-70 46.5 70 46.5q0 1 0.75 3t1.25 2.5l-37.5 76 84.5 5.5q0.5 0.5 1.75 2t1.75 2l5.5 84 75.5-37q1 0 3 0.75t3 1.25l46.5 69.5 46.5-69.5q1-0.5 3-1.25t3-0.75l75.5 37 5.5-84.5q0.5-0.5 2-1.75t2-1.75l84-5.5-37.5-75.5q0.5-1 1.25-3t0.75-3zM256 352q-53 0-90.5-37.5t-37.5-90.5 37.5-90.5 90.5-37.5 90.5 37.5 37.5 90.5-37.5 90.5-90.5 37.5zM256 128q-40 0-68 28.25t-28 68 28 67.75 68 28 68-28 28-67.75-28-68-68-28.25z" />
<glyph unicode="&#xe606;" d="M495.25-15.25q-12.75-12.75-29.25-16t-35.25 4.75-36.25 27l-145 170q-32-15-68.25-8.75t-62.75 32.75l-110.5 111q-8 7.5-8 18.75t8 19.25 19.25 8 18.75-8l117-117q19 4.5 36.5 15l-127.5 127.5q-8 8-8 19.25t8 19.25 19 8 19-8l128-127.5q10.5 17 15 36l-117 117q-8 8-8 19.25t7.75 19 19 7.75 19.25-8l111.5-110q26-26.5 32.25-63t-8.75-68.5l170-144q19-17 27.25-36t5-35.5-16-29.25z" />
<glyph unicode="&#xe607;" d="M496 384q-2 0.5-5.5 0.75t-13.5 0-19.75-2.25-22-8.25-22.25-16.25l-64.5-65q-5-4.5-12-4.5t-12 4.75-5 11.75 5 12q14 13.5 33 32.5-5.5 11-5.5 34.5 0 11 4.75 20.25t10.5 14.5 11 13 5.75 16.25q0 2.5-3.5 9.25t-7.75 14-4.75 8.75q20 0 42-20.5t22-43.5q0-3-1.5-10.5 15 5 31.25 7.75t25.25 2.75h9q7 0 11.5-4.25t4.5-11.75q0-8-4.5-12t-11.5-4zM256 256q-26.5 0-45.25 18.75t-18.75 45.25 18.75 45.25 45.25 18.75 45.25-18.75 18.75-45.25-18.75-45.25-45.25-18.75zM128 224q-26.5 0-45.25 18.75t-18.75 45.25 18.75 45.25 45.25 18.75 45.25-18.75 18.75-45.25-18.75-45.25-45.25-18.75zM160 160q0-26.5-18.75-45.25t-45.25-18.75-45.25 18.75-18.75 45.25 18.75 45.25 45.25 18.75 45.25-18.75 18.75-45.25zM128 32q0-26.5-18.75-45.25t-45.25-18.75-45.25 18.75-18.75 45.25 18.75 45.25 45.25 18.75 45.25-18.75 18.75-45.25zM192 128q26.5 0 45.25-18.75t18.75-45.25-18.75-45.25-45.25-18.75-45.25 18.75-18.75 45.25 18.75 45.25 45.25 18.75zM320 160q26.5 0 45.25-18.75t18.75-45.25-18.75-45.25-45.25-18.75-45.25 18.75-18.75 45.25 18.75 45.25 45.25 18.75zM224 128q-26.5 0-45.25 18.75t-18.75 45.25 18.75 45.25 45.25 18.75 45.25-18.75 18.75-45.25-18.75-45.25-45.25-18.75zM288 224q0 26.5 18.75 45.25t45.25 18.75 45.25-18.75 18.75-45.25-18.75-45.25-45.25-18.75-45.25 18.75-18.75 45.25z" />
<glyph unicode="&#xe608;" d="M288 164v-132h64q13 0 22.5-9.25t9.5-22.5-9.5-22.75-22.5-9.5h-192q-13.5 0-22.75 9.5t-9.25 22.75 9.25 22.5 22.75 9.25h64v132q-55.5 13.5-91.75 66.25t-36.25 121.75q0 73 41 128h238q41-55 41-128 0-69-36.5-121.75t-91.5-66.25zM358 448h-204q-26-43-26-96 0-33.5 10.5-64h234.5q11 30.5 11 64 0 53-26 96z" />
<glyph unicode="&#xe609;" d="M504.5 302.5l-103-71q-2-2-6.5-3.5-3.5-4-11-4h-96v-224q0-13-9.5-22.5t-22.75-9.5-22.5 9.5-9.25 22.5v224h-192q-13.5 0-22.75 9.25t-9.25 22.75v128q0 13 9.25 22.5t22.75 9.5h192v32q0 13 9.25 22.5t22.5 9.5 22.75-9.5 9.5-22.5v-32h70.5q9.5 0.5 18.5 0h7q7 0 10.5-3.5 5-1.5 7-3.5l103-71q7.5-7.5 7.5-17.75t-7.5-17.75z" />
<glyph unicode="&#xe60a;" d="M405 140.5l-136-172.5-136 172.5q-36.5 38-49.75 89.25t0 102.5 49.75 89.75q28 28.5 63.75 43.25t72.25 14.75 72.25-14.75 63.75-43.25q36.5-38.5 49.75-89.75t0-102.5-49.75-89.25zM269.25 415.5q-53.25 0-90.75-37.5t-37.5-90.5 37.5-90.25 90.75-37.25 90.75 37.25 37.5 90.25-37.5 90.5-90.75 37.5zM269.5 224q-26.5 0-45.25 18.75t-18.75 45.25 18.75 45.25 45.25 18.75 45.25-18.75 18.75-45.25-18.75-45.25-45.25-18.75z" />
<glyph unicode="&#xe60b;" d="M245.572 396.609c-9.851 0-17.281-7.284-17.281-16.94v-197.024c-4.475 7.219-9.161 14.302-13.769 21.269-19.729 29.812-38.363 57.969-39.516 92.283-0.28 8.298-6.424 16.698-17.63 16.698-4.823 0-9.376-1.85-12.496-5.075-3.059-3.161-4.588-7.339-4.427-12.080 1.42-42.274 23.306-75.892 44.469-108.404 6.744-10.363 13.721-21.077 19.869-31.853 12.438-21.794 20.125-47.008 23.504-77.080v-71.639c0-1.467 0.185-2.901 0.556-4.345l-0.013-0.215c-0.041-0.628-0.078-1.256-0.123-1.88-0.345-4.779 1.052-9.005 4.042-12.216 3.052-3.28 7.595-5.161 12.465-5.161 8.366 0 17.241 5.632 18.019 16.394 2.276 31.443 2.154 57.2-0.382 81.012v71.724c11.639 18.204 43.226 27.153 59.747 34.581 23.999 10.789 44.332 26.129 53.060 51.784 6.397 18.808-23.279 26.812-29.625 8.168-10.841-31.873-56.101-37.922-81.855-52.934-0.454-0.263-0.88-0.563-1.328-0.837v186.832c-0.003 9.659-7.434 16.94-17.285 16.94zM51.971 318.669c-9.673-30.887-2.543-69.219 18.61-100.034 19.245-28.037 46.844-45.183 75.728-47.039 0.468-0.031 0.929-0.045 1.375-0.045 9.888 0 17.302 7.4 17.63 17.596 0.3 9.339-5.953 19.688-18.128 20.47-19.306 1.243-32.84 13.695-40.796 23.921-15.456 19.865-23.067 48.101-18.937 70.26 4.929 26.471 29.365 48.005 54.47 48.005 10.974 0 20.995-3.949 29.791-11.742 0.963-0.853 2.011-1.604 3.188-2.287 3.167-2.782 7.206-4.304 11.476-4.304 6.905 0 13.677 3.898 17.251 9.93 3.376 5.7 3.413 12.435 0.106 18.473-10.653 19.435 2.588 41.035 21.177 52.327 13.647 8.291 32.758 12.493 56.805 12.493 5.328 0 10.824-0.195 16.808-0.594 23.365-1.56 43.762-13.203 57.44-32.792 14.844-21.262 19.442-48.749 12.356-73.663-2.894-5.779-2.731-13.101 0.478-18.903 3.199-5.782 8.93-9.284 15.728-9.605 11.288-0.536 20.589-6.567 27.648-17.927 13.431-21.617 13.715-53.405 6.274-70.455-14.233-32.618-57.32-39.724-88.494-42.233-0.874-0.072-1.741-0.205-2.673-0.413-12.148-0.219-18.613-9.421-18.719-18.514-0.127-10.595-7.493-18.251-17.913-18.616-12.148-0.426-18.531-10.526-18.37-19.818 0.185-10.567 7.793-18.238 18.087-18.238 0.249 0 0.505 0.003 0.761 0.014 24.603 0.86 45.148 16.264 52.541 38.858 64.993 7.923 103.67 34.846 114.998 80.077 11.008 43.94-8.274 102.649-50.344 120.139 5.526 32.59-2.171 64.7-21.945 91.003-21.794 28.976-55.832 47.029-93.403 49.535-3.993 0.266-8.042 0.403-12.029 0.403-35.662 0-68.318-10.588-91.945-29.815-14.333-11.66-23.75-29.259-26.163-48.313-6.707 1.792-13.602 2.693-20.589 2.697-40.090 0.003-77.216-29.133-90.279-70.847z" />
<glyph unicode="&#xe60c;" d="M413.497 196.21c-22.585 17.408-51.029 19.157-67.783 5.504l-38.94 19.214c49.664 34.858 90.14 60.63 91.108 61.255l-8.277 13.070c-6.3-3.968-103.751-66.019-182.5-129.138l-0.47 1.877c-37.59-9.444-112.469-16.726-113.223-16.782l1.479-15.431c2.503 0.242 50.83 4.95 89.757 11.833-33.948-28.772-61.725-56.618-72.718-78.023l13.753-7.082c19.058 37.12 95.801 97.493 162.972 145.565l3.228-27.293c-22.087-5.291-37.39-31.019-34.802-60.7 2.83-31.957 25.245-56.092 50.077-53.902 24.832 2.176 42.695 29.866 39.894 61.81-0.298 3.413-0.938 6.713-1.664 9.927 3.698-4.736 7.894-9.259 12.999-13.212 25.415-19.584 58.368-19.456 73.586 0.298s6.912 51.627-18.474 71.211zM306.774 220.914l-3.3-6.656-0.469 3.997c1.28 0.896 2.517 1.792 3.769 2.659zM296.221 84.366c-8.363 5.803-33.664 26.524-20.082 56.434 0 0-3.854-25.827 22.613-58.098 0-0.014-0.967 0.569-2.531 1.664zM307.385 181.12l-2.774 23.566 31.417-15.488c-3.613-7.694-4.366-16.498-2.674-25.472-6.998 9.031-16 15.317-25.97 17.394zM422.528 140.971c-12.914 39.68-36.75 50.332-36.75 50.332 32.498-4.665 36.31-37.149 36.722-47.317 0.057-1.906 0.029-3.015 0.029-3.015zM277.077 225.195l3.94 3.769c-3.997-3.826-63.588 90.070-63.588 90.070v3.243c15.858-30.293 59.051-75.534 70.23-86.954l7.111 6.813c-0.697 5.405-1.778 10.311-2.802 15.218l5.533-0.128c71.751 93.625 4.224 161.18 4.224 161.18-34.418-31.815-47.915-61.298-51.114-86.115-31.246 26.624-66.83 26.781-66.83 26.781-5.162-131.683 93.298-133.874 93.298-133.874zM297.216 366.293l2.276 2.275c-8.106-25.941-10.666-70.67-11.478-96.014-1.92 6.201-4.053 11.961-6.442 17.294 5.731 32.042 15.644 76.444 15.644 76.444z" />
<glyph unicode="&#xe60d;" d="M364.636 125.578c-8.735 33.577-44.606 50.033-72.668 53.918-7.276 1.019-12.16-4.859-12.544-10.476-0.338-4.935 2.775-8.714 7.757-9.401 13.507-1.874 46.070-9.195 56.822-36.736 6.293-16.113 0.921-23.522-11.525-31.043-7.7 4.255-15.401 6.405-22.897 6.405-21.33 0-35.584-17.086-41.329-25.543-16.691-1.296-33.485-0.231-48.671 3.092-14.233 3.118-33.602 10.532-45.066 28.15-9.62 14.776-11.274 33.767-4.905 56.443 10.112 36.029 32.051 68.925 53.269 100.741 8.054 12.078 16.384 24.566 23.787 36.859 15.37 25.534 32.041 55.506 35.22 88.074 0.348 3.559-0.978 5.852-2.156 7.147-1.741 1.92-4.413 3.026-7.322 3.026-4.987 0-10.353-3.323-10.978-9.671-2.248-22.994-13.322-44.483-24.478-64.522-9.805-17.608-20.93-34.882-31.688-51.594-3.856-5.986-7.716-11.976-11.52-17.987l-2.77-4.368c-22.794-35.917-51.159-80.619-44.754-126.146 6.272-44.585 44.124-70.164 103.854-70.164 32.558 0 67.635 8.3 91.541 21.652 21.791 12.18 29.107 28.749 23.019 52.142z" />
<glyph unicode="&#xe60e;" d="M250.696 104.16l3.648-0.184c121.688 0 107.088 79.096 222.696 130.208-68.144 0-139.944 94.448-180.104 94.448s-42.592-40.632-42.592-40.632l-0.72-3.504c0 0-5.36 44.128-45.52 44.128s-111.96-94.072-180.104-94.072c115.608-51.112 101-130.392 222.696-130.392zM373.304 232.048c-47.456-11.56-62.976-37.728-118.8-37.728-53.392 0-99.936 37.728-118.8 37.728-0.008 0 182.832-2.128 237.6 0z" />
<glyph unicode="&#xe60f;" d="M347.606 261.523c-1.69-0.435-3.045-1.171-4.651-1.69 5.839 7.244 11.175 14.872 15.44 23.203 4.801 9.368 8.548 19.355 11.041 29.827 0.652 2.627 1.204 5.286 1.69 8.013 1.355 7.712 2.108 15.608 2.108 23.688 0 0.452-0.034 0.92-0.034 1.389-0.034 3.964-0.234 7.896-0.602 11.777-1.255 12.898-4.349 25.277-8.966 36.853-0.351 0.87-0.669 1.74-1.037 2.61-6.156 14.537-14.822 27.769-25.411 39.229-0.686 0.736-1.405 1.489-2.091 2.208-2.024 2.074-4.065 4.115-6.207 6.039-24.072 21.948-56.024 35.331-91.088 35.331-35.315 0-67.55-13.601-91.674-35.883-5.621-5.186-10.807-10.84-15.491-16.929-17.699-22.852-28.272-51.542-28.272-82.624 0-21.48 5.169-41.738 14.119-59.805-41.27 21.497-93.547-4.249-116.483 6.775 24.992-38.209 20.175-47.041 62.164-88.964 28.071-28.071 54.251-29.81 71.933-24.909 35.833-34.595 58.166-70.462 58.2-120.899-3.697 2.978-8.113 5.286-13.299 5.286-14.52 0-25.11-8.18-30.179-19.807-31.986 10.89-53.18 2.359-55.054-18.954-15.207 5.604-34.495-11.894-34.495-27.101 0-14.989 11.844-27.168 26.699-27.736l235.374-0.469c0 0 25.093 13.517 25.093 28.221 0 15.44-12.497 27.971-27.921 27.971-2.108 0-4.166-0.301-6.123-0.803 0.117 1.104-2.71 31.768-43.896 12.764-3.178 14.822-7.394 25.93-32.102 25.93-12.196 0-20.476-4.416-25.779-8.899 10.388 52.377 43.010 90.419 89.415 117.502 0.469 0.301 0.736 0.686 1.087 1.054 14.37-11.51 39.447-20.392 76.651-4.969 54.786 22.735 60.123 48.179 97.796 73.975-27.401-1.556-76.5 34.328-127.958 20.794zM358.731 373.137c0.184-0.702 0.351-1.405 0.502-2.142l-0.904 1.69 0.401 0.452zM347.724 400.103l0.786 0.887c1.021-2.007 1.974-4.031 2.911-6.090l-1.288 0.017-2.409-0.334v5.52zM328.135 423.724l0.034 6.056c2.125-2.275 4.182-4.567 6.123-6.993l-2.442-3.63-8.515 0.067-0.536 1.79 5.337 2.71zM164.778 438.747v0.251h2.71l0.234 0.937h4.466v-1.94l-1.272-1.723h-6.139v2.476zM169.111 432.724c0 0 2.71 0.435 2.945 0.435s0-2.71 0-2.71l-6.123-0.368-1.155 1.405 4.333 1.238zM132.826 410.994l0.218-2.242-5.153-6.274c1.523 2.911 3.195 5.738 4.935 8.515zM123.442 393.195v-7.060l5.169-2.493v-9.82l4.952-8.464 4.031-0.619 0.502 2.894-4.751 7.361-0.937 7.077h2.793l1.188-7.293 6.859-10.037-1.773-3.245 4.383-6.658 10.84-2.677v1.757l4.333-0.635-0.401-3.095 3.396-0.619 5.253-1.439 7.445-8.482 9.502-0.736 0.92-7.728-6.507-4.534-0.301-6.942-0.953-4.233 9.418-11.777 0.72-4.015c0 0 3.396-0.937 3.814-0.937s7.662-5.471 7.662-5.471v-21.279l2.576-0.736-1.756-9.786 4.333-5.805-0.786-9.703 5.738-10.088 7.344-6.441 7.394-0.134 0.72 2.392-5.404 4.567 0.301 2.292 0.987 2.777 0.218 2.844-3.68 0.101-1.84 2.359 3.061 2.945 0.401 2.225-3.412 0.987 0.218 2.041 4.834 0.736 7.394 3.547 2.476 4.55 7.728 9.92-1.74 7.762 2.392 4.132 7.126-0.234 4.785 3.798 1.572 14.989 5.319 6.741 0.92 4.332-4.851 1.572-3.195 5.236-10.94 0.117-8.682 3.296-0.401 6.19-2.894 5.085-7.863 0.101-4.583 7.077-4.015 1.958-0.234-2.175-7.327-0.418-2.694 3.747-7.645 1.556-6.29-7.31-9.92 1.707-0.686 11.175-7.261 1.221 2.894 5.487-0.82 3.161-9.518-6.357-5.972 0.736-2.125 4.65 1.272 4.818 3.313 6.073 7.595 3.847h14.655l-0.050-4.483 5.269-2.442-0.418 7.629 3.814 3.831 7.662 5.036 0.502 3.546 7.662 7.963 8.13 4.483-0.736 0.585 5.504 5.22 2.024-0.536 0.92-1.154 2.091 2.308 0.502 0.251-2.292 0.318-2.309 0.769v2.225l1.204 1.004h2.71l1.238-0.552 1.088-2.175 1.305 0.218v0.184l0.368-0.134 3.831 0.569 0.536 1.874 2.174-0.552v-1.99l-1.974-1.405 0.301-2.208 6.892-2.124c0 0 0.017-0.050 0.017-0.084l1.623 0.134 0.083 2.995-5.487 2.493-0.301 1.422 4.534 1.556 0.201 4.349-4.734 2.894-0.318 7.327-6.491-3.195h-2.392l0.619 5.587-8.866 2.075-3.663-2.777v-8.448l-6.591-2.058-2.643-5.52-2.844-0.452v7.026l-6.207 0.853-3.095 2.007-1.238 4.567 11.058 6.491 5.437 1.673 0.552-3.663 3.044 0.184 0.234 1.807 3.145 0.469 0.067 0.619-1.355 0.569-0.318 1.924 3.881 0.334 2.342 2.442 0.134 0.184h0.034l0.72 0.719 8.147 1.037 3.596-3.045-9.435-5.052 12.044-2.861 1.556 4.032h5.269l1.84 3.513-3.714 0.92v4.45l-11.66 5.152-8.047-0.903-4.567-2.409 0.334-5.788-4.785 0.736-0.736 3.195 4.55 4.149-8.264 0.401-2.392-0.719-1.020-2.793 3.095-0.502-0.619-3.111-5.236-0.284-0.853-2.058-7.629-0.234c0 0-0.218 4.35-0.518 4.35s5.972 0.1 5.972 0.1l4.55 4.466-2.476 1.238-3.296-3.195-5.487 0.301-3.296 4.534h-7.026l-7.327-5.471h6.725l0.602-1.974-1.74-1.656 7.445-0.2 1.121-2.694-8.364 0.334-0.418 2.041-5.253 1.154-2.777 1.539-6.274-0.067c20.526 14.972 45.737 23.805 73.004 23.805 31.433 0 60.173-11.744 82.055-31.032l-1.489-2.643-5.738-2.225-2.392-2.643 0.552-3.062 2.945-0.401 1.773-4.466 5.103 2.058 0.853-5.956h-1.539l-4.199 0.602-4.634-0.786-4.5-6.324-6.44-1.021-0.92-5.504 2.71-0.636-0.769-3.546-6.407 1.272-5.855-1.272-1.238-3.245 1.021-6.825 3.43-1.623 5.772 0.034 3.881 0.352 1.188 3.111 6.089 7.913 3.964-0.82 3.964 3.546 0.736-2.777 9.702-6.558-1.171-1.572-4.332 0.217 1.673-2.392 2.71-0.585 3.145 1.321-0.067 3.798 1.389 0.686-1.104 1.188-6.474 3.63-1.723 4.785h5.387l1.723-1.707 4.634-3.982 0.184-4.834 4.818-5.119 1.773 7.010 3.313 1.79 0.635-5.721 3.245-3.563 6.474 0.101c1.255-3.212 2.375-6.507 3.363-9.853l-0.669-0.602h-9.904l-6.039 4.5-6.357-0.619v-3.881h-2.024l-2.158 1.556-11.007 2.777v7.127l-13.952-1.087-4.332-2.326h-5.521l-2.727 0.284-6.708-3.747v-7.026l-13.768-9.887 1.137-4.249h2.793l-0.736-4.031-1.957-0.72-0.101-10.539 11.877-13.534h5.186l0.301 0.837h9.318l2.66 2.459h5.286l2.894-2.894 7.829-0.803-1.021-10.439 8.716-15.407-4.584-8.782 0.318-4.115 3.63-3.614v-9.953l4.734-6.374v-8.28h4.099c-22.818-27.987-57.53-45.937-96.408-45.937-68.537 0-124.294 55.757-124.294 124.312-0.016 17.264 3.53 33.691 9.92 48.63zM176.238 418.455l3.262 1.556 2.928-0.702-1.020-3.948-3.161-1.004-2.007 4.099zM193.501 409.171v-2.576h-7.411l-2.81 0.803 0.702 1.773 3.563 1.455h4.885v-1.455h1.071zM196.931 405.608v-2.493l-1.874-1.204-2.309-0.401c0 0 0 3.714 0 4.099h4.182zM194.823 406.577v2.978l2.526-2.325-2.526-0.653zM195.994 400.656v-2.442l-1.79-1.773h-3.931l0.619 2.727 1.874 0.168 0.368 0.937 2.861 0.385zM186.157 405.608h4.099l-5.269-7.377-2.158 1.188 0.452 3.095 2.877 3.095zM202.97 401.509v-2.442h-3.948l-1.088 1.589v2.242h0.318l4.718-1.388zM199.323 404.805l1.104 1.188 1.907-1.188-1.506-1.255-1.506 1.255zM202.903 43.815c0 0-0.134 0.284-0.251 0.536l1.523 1.572c-0.769-1.238-1.272-2.108-1.272-2.108zM415.024 228.249c-4.601-1.94-11.158-4.467-19.020-7.461-4.015-1.438-8.231-3.045-12.831-4.668-4.534-1.589-9.235-3.296-14.202-5.036-4.901-1.74-9.937-3.546-14.989-5.353-5.069-1.74-10.322-3.697-15.541-5.721-4.901-1.807-10.004-4.283-14.989-6.274-4.935-2.259-13.416-5.186-18.184-7.26-5.805-2.425-9.485-3.731-13.183-5.688-41.186-24.056-76.183-49.902-87.291-94.902-2.024 42.307-27.602 66.614-58.183 96.893 0 0 0.034 0.050 0.117 0.050-4.099 3.865-8.448 8.030-12.831 12.463-3.663 3.764-7.495 7.511-11.225 11.51-3.831 3.697-7.612 7.913-11.459 11.459-4.049 3.898-8.147 7.762-12.145 11.225-4.049 3.63-8.013 7.227-11.844 10.656-3.898 3.563-7.712 6.925-11.225 10.137-3.546 3.245-6.925 6.306-10.004 9.167-6.156 5.805-11.309 10.656-14.788 14.169-3.48 3.547-5.471 5.571-5.471 5.571s10.406-4.768 24.859-13.55c7.243-4.433 15.608-9.653 24.223-15.792 4.416-2.977 8.799-6.223 13.333-9.769 2.242-1.74 4.45-3.513 6.692-5.286l6.34-5.453c1.121-1.020 2.024-1.673 3.296-2.945l3.078-3.011c2.075-2.024 4.132-4.015 6.006-6.039 3.814-4.132 7.528-8.197 10.907-12.245 3.329-4.115 6.625-8.030 9.485-11.995 0.569-0.87 1.137-1.639 1.756-2.425 5.186 8.365 7.21 26.315 1.004 45.653 22.634-16.996 50.605-27.167 81.017-27.167 20.325 0 39.563 4.584 56.877 12.663-6.575-11.727-9.117-23.17-7.963-30.346 0.87 0.552 1.707 1.021 2.56 1.606 4.132 2.526 8.699 4.935 13.366 7.445 4.634 2.476 9.636 4.801 14.738 7.16 2.51 1.171 5.236 2.241 7.829 3.296l3.948 1.623c1.773 0.686 2.793 0.937 4.199 1.455l7.979 2.643c2.793 0.786 5.504 1.556 8.298 2.325 5.387 1.505 10.757 2.894 15.976 3.932 10.322 2.375 20.024 4.099 28.389 5.37 16.762 2.543 28.221 3.044 28.221 3.044s-2.543-1.171-7.127-3.129zM299.745 419.743l0.267-2.024-3.011-0.602-0.418-4.3h3.613l4.801 0.469 2.476 2.945-2.61 1.037-1.438 1.673-2.192 3.496-1.037 4.952-4.065-0.82-1.154-1.757v-1.957l1.957-1.355zM296.283 418.103l0.2 2.66-2.375 1.054-3.346-0.786-2.493-3.981v-2.56h2.894zM227.494 406.712l-0.753-1.907h-3.563v-1.84h0.853c0 0 0.067-0.368 0.134-0.887l2.174 0.168 1.372 0.853 0.351 1.723 1.74 0.15 0.702 1.456-1.623 0.318h-1.388zM218.293 403.382l-0.134-1.824 2.593 0.218 0.268 1.824-1.556 1.204z" horiz-adv-x="476" />
<glyph unicode="&#xe610;" d="M256 480c-141.39 0-256-114.61-256-256 0-29.518 3.462-48.755 13.209-78.289 19.012-54.903 118.76 48.358 161.677-12.555 42.917-60.896-96.785-114.352-3.1-150.93 42.624-10.35 54.679-14.242 84.214-14.242 141.39 0 256 114.61 256 256 0 141.407-114.61 256.017-256 256.017zM380.202 394.666c29.19 0 52.87-20.149 52.87-45.017 0-24.834-23.68-45-52.87-45s-52.87 20.166-52.87 45c0 24.868 23.663 45.017 52.87 45.017zM81.63 207.863c-29.191 0-52.853 20.166-52.853 45.017s23.68 45.017 52.853 45.017c29.208 0 52.888-20.166 52.888-45.017 0-24.851-23.662-45.017-52.888-45.017zM143.542 311.504c-29.191 0-52.87 20.149-52.87 45.017s23.68 45.017 52.87 45.017c29.191 0 52.87-20.149 52.87-45.017 0-24.868-23.68-45.017-52.87-45.017zM208.003 407.858c0 24.851 23.662 45.035 52.87 45.035 29.19 0 52.853-20.184 52.853-45.035s-23.68-45.017-52.853-45.017c-29.208 0-52.87 20.166-52.87 45.017zM298.641 4.217c-29.208 0-52.853 20.149-52.853 45 0 24.868 23.663 45.017 52.853 45.017 29.19 0 52.87-20.149 52.87-45.017 0-24.851-23.68-45-52.87-45zM404.365 81.233c-29.19 0-52.853 20.184-52.853 45.017 0 24.851 23.663 45.017 52.853 45.017s52.87-20.166 52.87-45.017c0-24.834-23.663-45.017-52.87-45.017zM433.056 194.068c-29.19 0-52.87 20.149-52.87 45.017s23.68 45.017 52.87 45.017c29.208 0 52.887-20.149 52.887-45.017 0-24.868-23.663-45.017-52.887-45.017z" />
<glyph unicode="&#xe611;" d="M447.97 163.249c-0.006 0.353-0.015 0.701-0.021 1.053-0.016 0.714-0.035 1.427-0.059 2.14-5.015 157.824-191.89 313.558-191.89 313.558s-186.877-155.734-191.89-313.561c-0.022-0.715-0.044-1.426-0.060-2.141-0.007-0.352-0.015-0.701-0.021-1.053-0.018-1.080-0.028-2.162-0.028-3.248 0-1.184 0.014-2.361 0.035-3.539 0.002-0.098 0.003-0.195 0.007-0.293 2.039-104.266 87.198-188.165 191.957-188.165 104.758 0 189.916 83.899 191.959 188.168 0.002 0.098 0.004 0.196 0.005 0.293 0.021 1.178 0.036 2.357 0.036 3.539 0 1.086-0.012 2.168-0.030 3.249zM383.975 157.63l-0.004-0.203c-0.659-33.643-14.266-65.167-38.313-88.774-24.071-23.636-55.915-36.653-89.658-36.653-6.231 0-12.397 0.447-18.462 1.319 69.528 41.423 116.108 117.352 116.108 204.161 0 9.728-0.59 19.317-1.726 28.74 20.136-36.97 31.032-71.4 32.001-101.813l0.002-0.072c0.016-0.474 0.026-0.946 0.039-1.422l0.014-0.724c0.014-0.728 0.024-1.459 0.024-2.189 0-0.792-0.010-1.581-0.025-2.37z" />
<glyph unicode="&#xe612;" d="M304 0h-160q-22 0-35 22.75t-13 49.25q0 2.5 0.75 7t7.75 21 19 36 38.25 51.75 62.25 68.25 68 62.25 52.25 38.25 35.5 19 21.75 7.5l6.5 1q26.5 0 49.25-13t22.75-35v-160q0-25.5-17.75-57t-43.75-57.5-57.5-43.75-57-17.75zM397.75 334q-10.25 10-54.25-19.5t-96-81.75-81.5-96.25-19.5-54.25 54 19.5 96 81.75 81.75 96.25 19.5 54.25zM306.5 355.25q-9.5-5.25-20-2.5t-16 11.75l-27 78q-5.5 9-2.75 19t12.25 15.25 20.25 2.5 16.25-11.75l27-78.5q5.5-8.5 2.5-18.5t-12.5-15.25zM150 295.5l-79 78.5q-7 7.5-7 17.5t7.25 17.25 17.25 7.25 17.5-7l78.5-79q7-7 7-17.25t-7-17.5-17.25-7.25-17.25 7.5zM124.75 173.5q-5.25-9.5-15.25-12.5t-18.5 2.5l-78.5 27q-9 5.5-11.75 16.25t2.5 20.25 15.25 12.25 19-2.75l78-27q9-5.5 11.75-16t-2.5-20z" />
<glyph unicode="&#xe613;" d="M256-32q-59 0-111 25.25t-87.5 69.75l100.5 78.5q18-21.5 43.5-33.5t54.5-12q53 0 90.5 37.25t37.5 90.25-37.5 90.5-90.5 37.5q-43.5 0-78-27l78.5-78q1-23.5-15-23h-220q-8.5 0.5-14.5 9.5t-6 19.5l-1 212q-0.5 15.5 23 15l64-64q34.5 30.5 78 47.25t91 16.75q52 0 99.5-20.25t81.75-54.5 54.5-81.5 20.25-99.5-20.25-99.5-54.5-81.5-81.75-54.5-99.5-20.25z" />
<glyph unicode="&#xe614;" d="M256-32q-52 0-99.5 20.25t-81.75 54.5-54.5 81.75-20.25 99.5 20.25 99.5 54.5 81.75 81.75 54.5 99.5 20.25 99.5-20.25 81.75-54.5 54.5-81.75 20.25-99.5-20.25-99.5-54.5-81.75-81.75-54.5-99.5-20.25zM272 416q-20 0-34-14t-14-33.75 14-34 34-14.25 34 14.25 14 34-14 33.75-34 14zM336.5 151q-30-31.5-44-40.75t-27.5-9.25q-7.5 0-12.75 6.75t-5.25 17.25q0 21.5 41 163l-77.5 14.5q-50.5-124.5-50.5-195 0-32.5 15.5-54t38-21.5q40.5 0 123 81v38z" />
<glyph unicode="&#xe615;" d="M438.4 302.771l-52.377 144.281c-3.865 10.649-15.232 16.281-25.319 12.595l-348.083-127.053c-10.112-3.661-15.207-15.283-11.341-25.933l55.219-152.115v81.536c0 36.787 29.389 66.688 65.561 66.688h91.981l109.696 77.005 63.488-77.005h51.175zM492.493 256.589h-370.432c-10.752 0-19.507-9.191-19.507-20.531v-241.178c0-11.315 8.73-20.531 19.507-20.531h370.432c10.777 0 19.507 9.19 19.507 20.531v241.203c0 11.315-8.729 20.505-19.507 20.505zM464.231 25.677h-307.072v44.007l47.232 109.952 70.886-87.987 66.483 68.147 85.478 30.848 36.992-82.483v-82.483z" />
<glyph unicode="&#xe616;" d="M400.5 288l48-51.5-67.5-21 16-68.5-63.5 14.5 51-162.5q0-16.5-14-26l-26 26-31-31q-11 2.5-18 11.25t-7 19.75l-32.5 103-32-103q0-11-7-19.75t-18-11.25l-31 31-26-26q-14 9.5-14 26l51 162.5-63.5-14.5 16 68.5-67.5 21 48 51.5-48 51.5 67.5 20.5-16 68.5 68.5-16 20.5 67.5 51.5-48 51.5 48 21-67.5 68.5 16-16-68.5 67.5-20.5zM256.25 384q-39.75 0-68-28.25t-28.25-68 28.25-68 68-28.25 68 28.25 28.25 68-28.25 68-68 28.25z" />
<glyph unicode="&#xe617;" d="M512 448.5l-109.5-191q-40 43.5-96.5 57l76.5 134q7.5 13 22 22.5t28 9.5h64.5q13.5 0 18-9.5t-3-22.5zM420.5 128q0-43.5-21.25-80.25t-58.25-58.25-80.5-21.5-80.5 21.5-58.25 58.25-21.25 80.25 21.25 80.5 58.25 58.5 80.5 21.5 80.5-21.5 58.25-58.5 21.25-80.5zM9 448.5q-7.5 13-3 22.5t18 9.5h64.5q13.5 0 28-9.5t22-22.5l76.5-134q-57-13.5-96.5-57z" />
<glyph unicode="&#xe618;" d="M373.5 302q7-16 10.5-30l9-78.5 82.5-68.5q4.5-4.5 4.5-11t-4.5-11l-64-64 4.5-39q0-10-8.5-21t-20.5-11h-262q-13 0-21 9.5t-8 22.5l4.5 39-64 64q-4.5 4.5-4.5 11t4.5 11l82 68.5 9.5 78.5q3.5 14 10.5 30l-102 85q-4.5 4.5-4.5 11t4.5 11l66.5 66.5q4.5 4.5 11 4.5t11-4.5l83.5-100q21.5 8.5 47.5 8.5t47.5-8.5l83.5 100q4.5 4.5 11 4.5t11-4.5l66.5-66.5q4.5-4.5 4.5-11t-4.5-11zM134 47.5l-6-47.5h64v80q0 6.5 4.75 11.25t11.25 4.75h96q6.5 0 11.25-4.75t4.75-11.25v-80h64l-6 47.5-101.5 121.5q-4.5 5-4.5 11.5t4.5 11l11 11-23 23q-4.5-1.5-8.5-1.5t-8.5 1.5l-23-23 11-11q4.5-4.5 4.5-11t-4.5-11.5zM202.5 287.5l-11-11q-5-4.5-11.25-4.5t-11.25 4.5l-2.5 2q-4-11.5-6.5-22.5l-4-31.5 13 11q5 4.5 11.25 4.5t11.25-4.5l11-11 23 23q-1.5 4.5-1.5 8.5t1.5 8.5zM276.5 343l4.5 5.5q-13 3.5-25 3.5t-25-3.5l4.5-5.5q4.5-5 4.5-11.25t-4.5-11.25l-11-11 22.5-23q5 1.5 9 1.5t8.5-1.5l23 23-11 11q-4.5 5-4.5 11.25t4.5 11.25zM352 256q-2.5 11-6.5 22.5l-2.5-2q-5-4.5-11.5-4.5t-11 4.5l-11 11-23-23q1.5-4.5 1.5-8.5t-1.5-8.5l23-23 11 11q4.5 4.5 11 4.5t11.5-4.5l13-11z" />
<glyph unicode="&#xe619;" d="M432 416l-240-240-112 112-80-80 192-192 320 320z" />
<glyph unicode="&#xe61a;" d="M358.774 480c-84.382-139.493-151.15-70.891-248.795-171.215-86.168-88.533-56.291-195.153 16.262-231.872 71.615 36.594 144.884 118.411 199.225 236.862 0 0 48.833-149.572-100.745-293.687 72.634-85.074 195.914-25.886 230.363 109.459 37.449 147.137-60.194 296.948-96.31 350.453zM48.506-3.121c0.058-1.453 1.711-28.879 37.683-28.879 26.172 0 158.916 72.339 227.133 260.102-103.219-182.607-253.060-227.919-264.816-231.223z" />
<glyph unicode="&#xe61b;" d="M192.199 177.223v1.123c9.216 1.622 16.256 5.603 21.162 11.904 4.921 6.315 7.339 14.222 7.339 23.709 0 14.108-4.978 24.419-14.947 30.947-9.97 6.528-26.197 9.799-48.612 9.799h-48.341v-162.787h58.809c18.162 0 32.384 4.139 42.582 12.416 10.226 8.277 15.303 19.726 15.303 34.346 0 10.837-2.674 19.428-8.050 25.785-5.39 6.372-13.81 10.61-25.244 12.757zM135.41 232.462h23.054c12.004 0 20.807-1.707 26.339-5.12 5.561-3.413 8.306-8.946 8.306-16.598 0-8.462-2.589-14.45-7.694-17.977s-13.255-5.291-24.391-5.291h-25.614v44.985zM188.942 120.718c-5.689-4.267-14.108-6.4-25.244-6.4h-28.288v51.555h26.951c11.804 0 20.608-2.048 26.382-6.13 5.803-4.082 8.69-10.354 8.69-18.816 0.014-9.202-2.816-15.929-8.49-20.21zM259.328 254.734h26.638v-162.787h-26.638v162.787zM453.632 235.35c-13.226 14.62-31.914 21.93-56.135 21.93-24.562 0-43.449-7.21-56.69-21.603-13.255-14.407-19.882-35.030-19.882-61.91 0-26.866 6.613-47.602 19.783-62.18 13.198-14.578 32.029-21.888 56.604-21.888 24.277 0 43.022 7.353 56.306 22.045 13.226 14.692 19.84 35.286 19.84 61.796-0.014 26.596-6.627 47.19-19.826 61.81zM433.11 127.786c-8.050-10.24-19.997-15.36-35.812-15.36-15.886 0-27.89 5.177-35.968 15.531s-12.146 25.543-12.146 45.596c0 19.968 4.082 35.101 12.217 45.426 8.106 10.311 20.139 15.474 36.082 15.474 15.829 0 27.748-5.162 35.726-15.474 7.978-10.325 11.947-25.458 11.947-45.426 0.014-20.267-3.982-35.513-12.046-45.767zM333.284 299.022c3.2 3.399 6.386 6.613 9.173 10.282 5.632 7.069 10.411 14.55 14.222 22.414 2.005 3.712 3.613 8.007 5.191 11.89 1.607 3.854 2.973 8.107 4.281 12.018 1.351 3.84 2.574 7.737 3.627 11.506 1.195 3.897 2.247 7.31 3.115 10.084 0.967 2.774 1.579 5.674 2.134 7.381 0.498 1.934 0.782 2.944 0.782 2.944s-0.967 0.526-2.646 1.209c-1.664 0.598-4.338 1.849-7.438 2.546-3.115 0.739-7.367 2.034-11.634 2.218-4.281 0.256-9.173 0.199-14.507-0.27-5.163-0.64-10.368-1.977-15.971-3.655-5.561-1.707-10.638-4.338-16.029-7.211-5.248-2.958-9.998-6.585-14.777-10.524-4.466-4.039-8.69-8.462-12.558-13.17-3.555-4.793-7.082-9.757-9.728-14.976-2.774-5.191-5.134-10.524-6.755-15.943-3.498-10.738-4.637-21.689-4.394-31.388 0.228-4.921 0.697-9.472 1.479-13.639 0.726-4.138 1.892-7.95 2.83-11.008 0.384-1.465 0.91-2.83 1.422-4.039 0.726 1.678 1.493 3.47 2.389 5.433 4.394 9.671 10.837 22.286 18.503 34.176 3.812 5.93 8.007 11.619 12.146 16.768 2.19 2.489 4.338 4.878 6.329 7.154 2.134 2.105 4.195 4.125 6.087 5.945 2.062 1.692 3.911 3.214 5.561 4.565 1.607 1.436 3.3 2.304 4.551 3.157 2.56 1.692 4.025 2.631 4.025 2.631s-1.394-1.081-3.84-2.93c-1.166-0.981-2.716-1.948-4.224-3.485-1.493-1.479-3.228-3.129-5.106-4.935-1.692-1.949-3.555-4.096-5.533-6.343-1.778-2.375-3.67-4.878-5.632-7.452-3.641-5.376-7.339-11.25-10.582-17.351-6.557-12.189-11.861-24.988-15.389-34.731-1.024-2.887-1.024-2.887-1.493-4.238l7.978 0.029c2.276 0.839 4.75 1.735 7.225 2.887 3.67 1.579 7.58 3.428 11.534 5.518 3.968 2.062 7.865 4.452 11.861 6.955 3.94 2.503 7.723 5.333 11.421 8.234 3.555 2.987 7.168 6.016 10.368 9.344z" />
<glyph unicode="&#xe61c;" d="M474.48 261.056c49.936 49.904 49.936 130.88 0 180.752-24.944 24.944-57.68 37.44-90.368 37.44-32.656 0-65.408-12.496-90.336-37.44l-9.44-9.44-47.584 47.632-45.12-45.152 47.632-47.6-239.264-239.408v-115.968l62.88-63.872h118.624l238.416 238.496 46-46.032 45.184 45.12-46.064 46.032 9.44 9.44zM165.12 42.128c0.752 24.256-7.632 48.56-26.064 67.008-16.944 16.992-39.056 25.312-61.312 26.064l206.704 206.768 90.288-90.224-209.616-209.616z" horiz-adv-x="511" />
<glyph unicode="&#xe61d;" d="M327.483 144.817c7.739-55 18.629-98.284 25.325-123.274 4.057-15.202 7.621-14.493 11.166-14.493s10.221 0 13.056 0c6.755 0 5.337 21.012 5.337 21.012s-8.192 74.693-5.809 132.687c-11.599-10.142-35.958-15.931-49.073-15.931zM268.248 133.809c2.796-50.609 9.787-90.427 14.257-113.428 2.698-14.001 6.301-13.332 9.846-13.332 3.584 0 10.24 0 13.075 0 6.735 0 7.227 19.338 7.227 19.338s-1.477 68.707 6.125 122.053c-12.524-9.334-37.416-14.632-50.531-14.632zM109.509 163.368c7.739-58.565 26.112-114.274 32.807-140.859 4.056-16.207 7.621-15.439 11.166-15.439s12.662 0 15.498 0c3.88 0 2.6 18.983 2.6 18.983s-13.647 52.874-11.264 114.609c-16.010 1.3-39.109 10.063-50.806 22.705zM59.274 184.615c6.026-48.010 9.374-127.331 15.793-159.114 3.859-19.338 8.172-18.452 12.445-18.452 4.293 0 6.656 0 10.063 0 8.094 0 7.798 26.742 7.798 26.742s1.674 64.965 12.13 138.969c-16.049 9.078-42.87 14.71-58.23 11.855zM196.392 401.704c14.218 0 29.165-6.715 39.877-19.732 5.534 11.776 21.346 18.59 37.613 18.59 22.43 0 45.686-12.997 43.953-43.953 7.719 4.51 15.813 6.459 23.769 6.459 30.74 0 59.195-29.203 53.149-53.819-28.613-19.692 5.238-62.149-10.752-88.852 9.57-35.288-16.699-55.473-42.614-55.473-11.914 0-23.769 4.273-32.039 13.293 3.919-21.149-17.999-35.171-41.827-35.171-19.988 0-41.315 9.866-49.782 33.654-15.636-21.209-33.043-29.144-48.679-29.144-26.486 0-47.833 22.745-46.809 42.102-5.415-2.737-11.579-3.998-17.861-3.998-29.893 0-62.661 28.574-32.079 63.645-17.546 3.466-32.925 14.749-32.925 35.682 0 12.209 10.575 33.32 35.368 33.32 4.017 0 8.428-0.571 13.213-1.812-14.159 29.322 11.461 54.666 40.054 54.666 9.118 0 18.53-2.56 27.077-8.409 3.742 26.329 21.819 38.952 41.295 38.952zM196.392 439.847c-25.954 0-48.207-11.48-62.621-30.72-1.93 0.118-3.821 0.197-5.75 0.197-29.144 0-56.399-14.592-71.148-38.065-3.88-6.163-6.735-12.702-8.586-19.437-29.617-10.988-47.065-39.779-47.065-66.856 0-20.618 7.857-38.695 21.602-51.968-2.264-13.293-0.611-26.683 5.139-39.325 11.658-25.62 38.853-43.421 69.139-45.923 2.579-3.8 5.494-7.444 8.763-10.89 16.581-17.467 39.601-27.49 63.193-27.49 15.439 0 30.424 4.234 44.209 12.269 15.065-10.772 33.713-16.778 54.252-16.778 23.631 0 45.784 8.467 60.751 22.882 4.293-0.65 8.664-1.005 13.115-1.005 26.644 0 51.712 11.973 67.033 32.019 12.426 16.226 17.644 36.254 15.163 57.462 5.789 19.259 2.264 38.163-0.413 52.795-0.709 3.781-1.674 8.94-2.048 12.584 5.238 5.002 8.96 11.422 10.712 18.53 5.238 21.346-0.473 44.702-15.675 64.059-17.171 21.878-44.13 35.82-71.070 36.923-3.033 5.041-6.361 9.176-9.512 12.524-15.084 15.931-37.553 25.069-61.696 25.069-13.844 0-26.959-2.934-38.341-8.231-12.131 6.104-25.482 9.373-39.149 9.373v0zM504.615 231.483c6.656 27.628-30.365 114.314-132.077 83.712-51.87 23.788-75.678-18.255-75.953-28.829-0.335-11.52 39.976-12.485 53.583-11.008-3.505-4.883-0.236-1.005-2.422-16.069-2.717-18.865 2.934-34.462 15.183-50.983 22.685-30.523 179.181-38.262 141.686 23.178zM446.346 245.642c-5.494 0.787-9.334 5.947-8.586 11.5 0.768 5.573 5.868 9.452 11.343 8.685 5.474-0.808 9.315-5.947 8.546-11.5-0.768-5.573-5.849-9.452-11.303-8.685z" />
<glyph unicode="&#xe61e;" d="M128 352v-64h256v64h-256zM128 192h256v64h-256v-64zM128 96h256v64h-256v-64z" />
<glyph unicode="&#xe61f;" d="M256 480c-141.385 0-256-114.615-256-256s114.615-256 256-256 256 114.615 256 256-114.615 256-256 256zM256 16c-114.875 0-208 93.125-208 208s93.125 208 208 208 208-93.125 208-208-93.125-208-208-208zM406.628 246.627l-128.001 128c-12.496 12.497-32.757 12.497-45.254 0s-12.497-32.758 0-45.255l73.372-73.372h-178.745c-17.673 0-32-14.327-32-32s14.327-32 32-32h178.745l-73.373-73.372c-12.497-12.497-12.497-32.759 0-45.256 6.249-6.248 14.439-9.372 22.628-9.372s16.379 3.124 22.627 9.372l128.001 128c12.496 12.497 12.496 32.759 0 45.255z" />
<glyph unicode="&#xe620;" d="M256 480c-141.385 0-256-114.615-256-256s114.615-256 256-256 256 114.615 256 256-114.615 256-256 256zM208 64l-106 138 47 49 59-75 185 151 23-23-208-240z" />
<glyph unicode="&#xe621;" d="M421.006 185.26c-6.824 6.723-21.957 10.283-44.986 10.586-15.589 0.172-34.351-1.201-54.085-3.964-8.837 5.099-17.946 10.647-25.094 17.329-19.231 17.958-35.284 42.886-45.288 70.297 0.652 2.56 1.207 4.81 1.724 7.106 0 0 10.833 61.53 7.965 82.333-0.395 2.853-0.637 3.681-1.404 5.898l-0.941 2.417c-2.948 6.796-8.724 13.997-17.783 13.604l-5.458 0.172c-10.1 0-18.332-5.166-20.493-12.887-6.569-24.217 0.209-60.446 12.491-107.369l-3.144-7.643c-8.794-21.438-19.815-43.030-29.539-62.079l-1.264-2.476c-10.23-20.019-19.512-37.013-27.927-51.411l-8.688-4.594c-0.632-0.334-15.522-8.209-19.014-10.322-29.628-17.691-49.261-37.77-52.518-53.708-1.036-5.085-0.265-11.593 5.007-14.607l8.403-4.229c3.645-1.826 7.489-2.751 11.427-2.751 21.102 0 45.6 26.286 79.348 85.183 38.965 12.684 83.327 23.228 122.207 29.045 29.629-16.684 66.071-28.273 89.071-28.273 4.084 0 7.606 0.389 10.466 1.148 4.411 1.168 8.129 3.683 10.396 7.096 4.463 6.716 5.367 15.966 4.156 25.438-0.361 2.812-2.606 6.288-5.035 8.661zM105.823 72.976c3.848 10.521 19.080 31.322 41.602 49.778 1.416 1.148 4.904 4.416 8.097 7.451-23.551-37.562-39.323-52.533-49.699-57.229zM239.217 380.157c6.783 0 10.642-17.097 10.962-33.127 0.32-16.030-3.429-27.28-8.079-35.604-3.851 12.324-5.713 31.75-5.713 44.452 0 0-0.283 24.279 2.83 24.279zM199.426 161.253c4.725 8.458 9.641 17.378 14.665 26.839 12.246 23.158 19.979 41.278 25.739 56.173 11.455-20.842 25.722-38.56 42.493-52.756 2.092-1.771 4.309-3.551 6.637-5.325-34.105-6.748-63.582-14.955-89.534-24.931zM414.452 163.174c-2.077-1.299-8.027-2.050-11.854-2.050-12.353 0-27.636 5.647-49.063 14.833 8.234 0.609 15.781 0.919 22.55 0.919 12.391 0 16.060 0.054 28.175-3.036s12.269-9.367 10.192-10.666zM451.716 380.285l-71.432 71.431c-15.556 15.556-46.284 28.284-68.284 28.284h-240c-22 0-40-18-40-40v-432c0-22 18-40 40-40h368c22 0 40 18 40 40v304c0 22-12.728 52.729-28.284 68.285zM429.089 357.657c1.565-1.565 3.125-3.487 4.64-5.657h-81.729v81.728c2.17-1.515 4.092-3.075 5.657-4.64l71.432-71.431zM448 8c0-4.336-3.664-8-8-8h-368c-4.336 0-8 3.664-8 8v432c0 4.336 3.664 8 8 8h240c2.416 0 5.127-0.305 8-0.852v-127.148h127.148c0.547-2.873 0.852-5.583 0.852-8v-304z" />
<glyph unicode="&#xe622;" d="M256 480c141.385 0 256-114.615 256-256s-114.615-256-256-256-256 114.615-256 256 114.615 256 256 256zM256 16c114.875 0 208 93.125 208 208s-93.125 208-208 208-208-93.125-208-208 93.125-208 208-208zM105.372 246.627l128.001 128c12.496 12.497 32.757 12.497 45.254 0s12.497-32.758 0-45.255l-73.372-73.372h178.745c17.673 0 32-14.327 32-32s-14.327-32-32-32h-178.745l73.373-73.372c12.497-12.497 12.497-32.759 0-45.256-6.249-6.248-14.439-9.372-22.628-9.372s-16.379 3.124-22.627 9.372l-128.001 128c-12.496 12.497-12.496 32.759 0 45.255z" />
<glyph unicode="&#xe63e;" d="M352 160c-32-32-32-64-64-64s-64 32-96 64-64 64-64 96 32 32 64 64-64 128-96 128-96-96-96-96c0-64 65.75-193.75 128-256s192-128 256-128c0 0 96 64 96 96s-96 128-128 96z" />
<glyph unicode="&#xe763;" d="M256 480c-141.385 0-256-114.615-256-256s114.615-256 256-256 256 114.615 256 256-114.615 256-256 256zM128 352h256c4.569 0 9.002-0.981 13.072-2.831l-141.072-164.584-141.072 164.585c4.070 1.848 8.503 2.83 13.072 2.83zM96 128v192c0 0.67 0.028 1.336 0.070 2l93.832-109.471-92.799-92.799c-0.722 2.668-1.103 5.443-1.103 8.27zM384 96h-256c-2.827 0-5.601 0.381-8.27 1.104l91.059 91.059 45.211-52.749 45.212 52.747 91.058-91.060c-2.67-0.72-5.443-1.101-8.27-1.101zM416 128c0-2.827-0.381-5.6-1.103-8.27l-92.8 92.799 93.833 109.471c0.042-0.664 0.070-1.33 0.070-2v-192z" />
</font>
</defs>
</svg>
